<?xml version="1.0" encoding="UTF-8" standalone="no"?>
<!-- Created with Inkscape (http://www.inkscape.org/) -->

<svg
   version="1.1"
   id="svg1"
   width="202.11719"
   height="89.775391"
   viewBox="0 0 202.11719 89.775391"
   sodipodi:docname="baralho das arcas_Image 2_baralhoDasArcas.svg"
   xml:space="preserve"
   xmlns:inkscape="http://www.inkscape.org/namespaces/inkscape"
   xmlns:sodipodi="http://sodipodi.sourceforge.net/DTD/sodipodi-0.dtd"
   xmlns="http://www.w3.org/2000/svg"
   xmlns:svg="http://www.w3.org/2000/svg"><defs
     id="defs1" /><sodipodi:namedview
     id="namedview1"
     pagecolor="#ffffff"
     bordercolor="#000000"
     borderopacity="0.25"
     inkscape:showpageshadow="2"
     inkscape:pageopacity="0.0"
     inkscape:pagecheckerboard="0"
     inkscape:deskcolor="#d1d1d1" /><g
     inkscape:groupmode="layer"
     id="layer5"
     inkscape:label="Image 3"
     style="display:inline;opacity:1"
     sodipodi:insensitive="true"
     transform="translate(2.675781,-12.48047)"><path
       id="rect17-6"
       style="display:inline;opacity:1;fill:#e73737;fill-opacity:1"
       d="m 30.235147,226.08213 -12.939453,19.22266 -0.01758,15.33789 5.765625,5.28906 -0.01172,16.8164 -4.791016,4.28711 -0.03711,19.25 17.826172,9.54883 177.076175,0.0234 6.25781,-6.25195 0.002,-6.71485 -6.72266,-6.25781 -0.006,-11.0293 6.71289,-5.74804 0.0117,-41.28907 -6.71484,-6.73242 H 97.451944 l -5.289063,-5.74609 z m -12.957031,38.87109 0.002,4.80274 3.363281,2.88281 -0.0098,-4.79492 z m 0.0039,9.125 v 4.80274 l 3.365234,2.88281 -0.01172,-4.79492 z m 198.746094,9.56836 v 4.80274 l 3.36523,2.88281 -0.0117,-4.79492 z m 0.002,9.125 0.002,4.80274 3.36328,2.88281 -0.01,-4.79492 z"
       transform="translate(-19.953897,-213.60166)" /></g></svg>
