<?xml version="1.0" encoding="UTF-8" standalone="no"?>
<!-- Created with Inkscape (http://www.inkscape.org/) -->

<svg
   version="1.1"
   id="svg1"
   width="204.52843"
   height="92.214203"
   viewBox="0 0 204.52843 92.214203"
   sodipodi:docname="baralho das arcas.png"
   xml:space="preserve"
   xmlns:inkscape="http://www.inkscape.org/namespaces/inkscape"
   xmlns:sodipodi="http://sodipodi.sourceforge.net/DTD/sodipodi-0.dtd"
   xmlns="http://www.w3.org/2000/svg"
   xmlns:svg="http://www.w3.org/2000/svg"><defs
     id="defs1" /><sodipodi:namedview
     id="namedview1"
     pagecolor="#ffffff"
     bordercolor="#000000"
     borderopacity="0.25"
     inkscape:showpageshadow="2"
     inkscape:pageopacity="0.0"
     inkscape:pagecheckerboard="0"
     inkscape:deskcolor="#d1d1d1" /><g
     inkscape:groupmode="layer"
     id="layer2"
     inkscape:label="Image 2"
     style="display:inline"
     transform="translate(-17.280057,-226.0777)"><g
       id="g19"><path
         id="rect14"
         style="display:inline;opacity:1"
         d="m 33.859375,242.37891 185.432535,0.44194 2.46186,1.98416 c -0.10372,9.66296 -0.0999,19.14631 0.003,28.80854 l -6.55046,3.59833 -0.16406,6.44973 -0.003,1.97839 6.75513,6.29749 0.0141,20.11607 -6.31716,6.23834 -174.69216,-0.0463 -1.984594,-2.50617 z"
         sodipodi:nodetypes="ccccccccccccc" /><path
         id="rect15-4"
         style="display:inline;opacity:1;fill:#000000;fill-opacity:1"
         d="m 30.238718,226.0777 61.927778,0.005 5.287811,5.74778 115.194653,-1.6e-4 6.71618,6.73111 -0.78121,35.34701 -3.68035,2.9416 -2.26247,8.74966 0.004,11.0289 6.7239,6.25733 -0.003,6.71598 -6.25707,6.25021 -177.075928,-0.0221 -17.826113,-9.55007 0.03628,-19.24936 4.7918,-4.28727 0.01096,-16.81542 -5.765882,-5.29053 0.01843,-15.33789 z"
         sodipodi:nodetypes="cccccccccccccccccccc" /></g></g></svg>
