<?xml version="1.0" encoding="UTF-8" standalone="no"?>
<!-- Created with Inkscape (http://www.inkscape.org/) -->

<svg
   version="1.1"
   id="svg1"
   width="240.00018"
   height="88.683273"
   viewBox="0 0 240.00018 88.683274"
   sodipodi:docname="baralho das arcas - 3det-04-ok.svg"
   inkscape:version="1.3.2 (091e20e, 2023-11-25, custom)"
   xmlns:inkscape="http://www.inkscape.org/namespaces/inkscape"
   xmlns:sodipodi="http://sodipodi.sourceforge.net/DTD/sodipodi-0.dtd"
   xmlns="http://www.w3.org/2000/svg"
   xmlns:svg="http://www.w3.org/2000/svg">
  <defs
     id="defs1" />
  <sodipodi:namedview
     id="namedview1"
     pagecolor="#ffffff"
     bordercolor="#000000"
     borderopacity="0.25"
     inkscape:showpageshadow="2"
     inkscape:pageopacity="0.0"
     inkscape:pagecheckerboard="0"
     inkscape:deskcolor="#d1d1d1"
     inkscape:zoom="8"
     inkscape:cx="53.9375"
     inkscape:cy="185.3125"
     inkscape:window-width="1366"
     inkscape:window-height="705"
     inkscape:window-x="1592"
     inkscape:window-y="-8"
     inkscape:window-maximized="1"
     inkscape:current-layer="layer1"
     inkscape:export-bgcolor="#ffffff00" />
  <g
     inkscape:groupmode="layer"
     id="layer3"
     inkscape:label="Image 2"
     style="display:inline;opacity:1"
     transform="translate(0.00195313,-141.99805)">
    <path
       style="fill:#f7b11c;fill-opacity:1"
       d="M 91.90625,147.78125 92.711167,159.81629 38.095378,188.26718 43.125,190.625 93.25,178.5 l 27.2921,-9.18454 -0.22059,14.83852 -77.629938,16.57596 -9.63433,-0.70711 -25.0139024,1.32583 2.8284274,-11.66727 49.762639,-27.75394 14.459344,-4.05245 z"
       id="path23"
       sodipodi:nodetypes="cccccccccccccc" />
  </g>
  <g
     inkscape:groupmode="layer"
     id="layer2"
     inkscape:label="Image 1"
     style="display:inline;opacity:1"
     transform="translate(0.00195313,-141.99805)">
    <path
       id="path1"
       style="display:inline;fill:#000000"
       d="m 72.326172,141.99805 -60.634766,42.29297 0.292969,0.46289 c -0.05804,-8e-5 -0.127364,-0.0312 -0.177734,0 -0.146545,0.0907 -0.100541,0.34963 -0.230469,0.46289 -0.09218,0.0804 -0.255473,0.0368 -0.347656,0.11718 -0.12993,0.11326 -0.120003,0.33058 -0.230469,0.4629 -0.123419,0.14782 -0.292369,0.25621 -0.462891,0.3457 -0.108286,0.0568 -0.276318,0.0179 -0.347656,0.11719 -0.02241,0.0312 0.02716,0.0881 0,0.11523 -0.08194,0.0819 -0.2342892,0.024 -0.3476562,0 -0.3720926,-0.0789 -0.8356235,-0.14402 -1.0429688,-0.46289 -0.020938,-0.0322 0.02716,-0.0881 0,-0.11523 -0.027161,-0.0272 -0.088073,0.0272 -0.1152344,0 -0.054784,-0.0548 0.054784,-0.17765 0,-0.23243 -0.027161,-0.0272 -0.077946,-0.009 -0.1152344,0 -0.8043037,0.19885 -1.3949149,0.95936 -2.1992187,1.15821 -0.07521,0.0186 -0.1776395,0.0548 -0.2324219,0 -0.027162,-0.0272 0.020084,-0.0825 0,-0.11524 -0.045061,-0.0735 -0.1882487,-0.0421 -0.2304687,-0.11719 -0.2462976,-0.43831 -0.2536076,-1.16224 0.1152343,-1.5039 0.028179,-0.0261 0.088073,0.0272 0.1152344,0 0.027162,-0.0272 -0.027162,-0.0881 0,-0.11524 0.027621,-0.0276 0.08113,0.015 0.1171875,0 0.1007115,-0.042 0.1297573,-0.19046 0.2304688,-0.23242 0.071514,-0.0298 0.1776395,0.0548 0.2324219,0 0.054782,-0.0548 -0.034717,-0.16316 0,-0.23242 0.086299,-0.17216 0.3501561,-0.18957 0.4628906,-0.3457 0.3571012,-0.49457 0.4805132,-1.13417 0.578125,-1.73633 0.092613,-0.57132 0.1320279,-1.17281 0,-1.73633 -0.039452,-0.16839 -0.1910172,-0.29645 -0.2304688,-0.46484 -0.026287,-0.1122 0.0441,-0.23925 0,-0.34571 -0.062717,-0.15141 -0.2573191,-0.21091 -0.3476562,-0.34765 -0.1144888,-0.1733 -0.1186602,-0.40436 -0.2324219,-0.57813 -0.030006,-0.0458 -0.094482,-0.0665 -0.1152344,-0.11718 -0.058451,-0.1428 0.035578,-0.31276 0,-0.4629 -0.03981,-0.168 -0.085476,-0.37224 -0.2324219,-0.46289 -0.032692,-0.0202 -0.085537,0.0244 -0.1152343,0 -0.1519194,-0.12463 -0.022571,-0.40484 -0.1152344,-0.57812 -0.051668,-0.0966 -0.1904933,-0.1312 -0.2324219,-0.23242 -0.029399,-0.071 0,-0.15365 0,-0.23047 v -2.89453 -2.08399 c 0,-0.61719 -0.4364164,-1.41514 0,-1.85156 0.027621,-0.0276 0.086995,0.0248 0.1171875,0 0.1523743,-0.12508 -0.03714,-0.455 0.1152344,-0.58008 0.029689,-0.0244 0.08497,0.0237 0.1152344,0 0.1252806,-0.0979 0.036379,-0.32481 0.1152343,-0.46289 0.027169,-0.0476 0.066487,-0.0945 0.1171876,-0.11523 0.035549,-0.0146 0.088073,0.0272 0.1152343,0 0.054322,-0.0543 -0.054322,-0.17615 0,-0.23047 0.027161,-0.0272 0.088073,0.0272 0.1152344,0 0.027622,-0.0276 -0.00519,-0.0785 0,-0.11719 0.058461,-0.43611 0.3913268,-0.8356 0.3476563,-1.27344 -0.017136,-0.1718 -0.1763044,-0.29961 -0.2324219,-0.46289 -0.063867,-0.18583 0.016735,-0.43253 -0.1152344,-0.57812 -0.02559,-0.0282 -0.071277,-0.0327 -0.109375,-0.0332 -0.041851,-5.7e-4 -0.084299,0.0133 -0.1210937,0.0332 -0.4086622,0.22156 -0.7872586,0.53757 -1.0429688,0.92578 -0.067156,0.10195 -0.035168,0.2555 -0.1152344,0.34765 -0.056712,0.0653 -0.1675354,0.0581 -0.2324218,0.11524 -0.3132511,0.27596 -0.4470954,0.70587 -0.6933594,1.04297 -0.145626,0.19934 -0.3884049,0.34276 -0.4628906,0.57812 -0.1865813,0.58956 0.089612,1.23372 0.1152343,1.85157 0.07676,1.85101 0.096028,3.70413 0.1152344,5.55664 0.0064,0.61715 0.098862,1.24234 0,1.85156 -0.058701,0.36173 -0.2889556,0.68124 -0.3476563,1.04297 -0.018562,0.11439 0.044346,0.24059 0,0.34765 -0.041576,0.10037 -0.1888925,0.1301 -0.2304687,0.23047 -0.029648,0.0716 0.020717,0.15777 0,0.23242 -0.060133,0.21668 -0.2723863,0.36623 -0.3476563,0.57813 -0.091347,0.25716 0.044633,0.58938 -0.1152343,0.81055 -0.050656,0.0701 -0.1757095,0.0499 -0.2324219,0.11523 -0.160137,0.18432 -0.032508,0.55237 -0.2304688,0.69531 -0.03167,0.0229 -0.08033,-0.0129 -0.1171874,0 -0.2329349,0.0818 -0.4115697,0.28067 -0.578125,0.46289 -0.093805,0.10263 -0.1168814,0.26748 -0.2304688,0.34766 -0.1299004,0.0917 -0.3328121,0.0238 -0.4628906,0.11523 -0.1140383,0.0802 -0.1183836,0.26749 -0.2324219,0.34766 -0.1300786,0.0915 -0.32159747,0.0423 -0.46289062,0.11523 -0.31633163,0.1631 -0.62361179,0.39238 -0.66252728,1.17652 -0.0389155,0.78415 -0.21845381,1.03989 -0.1093497,1.14899 0.02716098,0.0272 0.0494035,-0.0383 0.07656448,-0.011 0.0547818,0.0548 -0.02424202,0.15884 0,0.23242 0.0291322,0.0884 0.12517219,0.14095 0.16601562,0.22461 0.0361722,0.0741 0.0139547,0.17466 0.0664063,0.23828 0.0546375,0.0663 0.174084,0.0504 0.23046875,0.11523 0.0802825,0.0922 0.0369834,0.25534 0.1171875,0.34766 0.1132331,0.13034 0.37224435,0.0855 0.46289055,0.23242 0.020168,0.0327 -0.018104,0.0814 0,0.11524 0.065696,0.12295 0.2142667,0.19194 0.3476563,0.23242 0.036756,0.0111 0.088073,-0.0272 0.1152344,0 0.054322,0.0543 0.029399,0.15949 0,0.23047 -0.1881501,0.45424 -1.61749301,1.0264 -1.61749301,1.0264 L 0.004749,216.58242 c 0,0 0.29741653,0.0488 0.3429073,0.12271 0.0201383,0.0327 -0.0146988,0.0797 0,0.11523 0.10429281,0.25179 0.32633882,0.47384 0.578125,0.57813 0.0354875,0.0147 0.0880733,-0.0272 0.1152343,0 0.02762,0.0276 -0.02762,0.0896 0,0.11718 0.054782,0.0548 0.160783,-0.0295 0.2324219,0 0.1008882,0.0415 0.1373389,0.17696 0.2324219,0.23047 0.1385705,0.078 0.3649746,-0.01 0.4628906,0.11524 0.047708,0.061 -0.046024,0.1701 0,0.23242 0.3115932,0.42193 1.0545714,0.19232 1.5039062,0.46289 0.046538,0.028 0.094446,0.0651 0.1152344,0.11524 0.029647,0.0716 -0.054782,0.17764 0,0.23242 0.054782,0.0548 0.1625875,-0.0336 0.2324219,0 0.2225242,0.10689 0.2770553,0.41561 0.4628906,0.57812 0.169276,0.14803 0.3595719,0.29474 0.578125,0.34766 0.5637566,0.13651 1.2080774,0.12436 1.7363281,-0.11524 0.050308,-0.0228 0.072346,-0.0849 0.1171876,-0.11718 0.1399153,-0.10066 0.3549912,-0.0961 0.4628906,-0.23047 0.099537,-0.124 -0.010046,-0.36497 0.1152344,-0.46289 0.030264,-0.0237 0.088073,0.0272 0.1152343,0 0.1091041,-0.1091 -0.047155,-0.31598 0,-0.46289 0.1015375,-0.31635 0.3273927,-0.59483 0.5800781,-0.81055 0.065324,-0.0558 0.1698373,-0.0544 0.2304688,-0.11524 0.061042,-0.0613 0.041753,-0.18683 0.1152344,-0.23242 0.065835,-0.0408 0.160908,0.0298 0.2324218,0 0.1007115,-0.042 0.1297573,-0.19046 0.2304688,-0.23242 0.071514,-0.0298 0.1665187,0.0407 0.2324219,0 0.073063,-0.0452 0.042171,-0.18531 0.1152343,-0.23047 0.2298304,-0.14204 0.5403649,0 0.8105469,0 0.3860679,0 0.7919899,-0.12221 1.1582029,0 0.183046,0.0611 0.279845,0.28658 0.462891,0.34766 0.07287,0.0243 0.156754,-0.0216 0.230469,0 0.616205,0.18082 1.18159,0.57278 1.621093,1.04101 0.272256,0.29005 0.4802,0.6579 0.580078,1.04297 0.01929,0.0744 -0.0038,0.15374 0,0.23047 0.01923,0.3875 0.155328,0.77231 0.115235,1.1582 -0.07945,0.76472 -1.14969,1.57901 -0.695313,2.19922 0.02309,0.0315 0.08957,-0.0276 0.117188,0 0.02716,0.0272 -0.02008,0.0825 0,0.11524 0.04506,0.0735 0.164469,0.0618 0.230469,0.11719 0.147774,0.12409 0.199461,0.3393 0.347656,0.46289 0.06596,0.055 0.185313,0.0422 0.230469,0.11523 0.02019,0.0327 -0.02716,0.0881 0,0.11523 0.05478,0.0548 0.166588,-0.0408 0.232422,0 0.07348,0.0456 0.04175,0.18684 0.115234,0.23243 0.06583,0.0408 0.17764,-0.0548 0.232422,0 0.02716,0.0272 -0.02365,0.085 0,0.11523 0.09792,0.12528 0.315988,0.0544 0.46289,0.11524 0.20775,0.0861 0.361447,0.28752 0.578125,0.34765 0.07465,0.0207 0.160846,-0.0297 0.232422,0 0.05019,0.0208 0.068,0.0884 0.115235,0.11524 0.138386,0.0786 0.365124,-0.008 0.46289,0.11718 0.0236,0.0303 -0.02716,0.0881 0,0.11524 0.05478,0.0548 0.154948,0 0.232422,0 0.462891,0 0.928019,0.0455 1.388672,0 0.195549,-0.0193 0.430881,0.0149 0.578125,-0.11524 0.09148,-0.0808 0.01626,-0.27618 0.115234,-0.34765 0.03167,-0.0229 0.08487,0.0219 0.117188,0 0.172154,-0.11685 0.08951,-0.42704 0.230469,-0.58008 0.05859,-0.0636 0.186837,-0.0418 0.232422,-0.11524 0.0405,-0.0653 -0.05432,-0.17614 0,-0.23046 0.02716,-0.0272 0.08807,0.0272 0.115234,0 0.05478,-0.0548 -0.0298,-0.16091 0,-0.23243 0.04197,-0.10071 0.190456,-0.12975 0.232422,-0.23046 0.01503,-0.0361 -0.02762,-0.0896 0,-0.11719 0.02716,-0.0272 0.08409,0.0225 0.115234,0 0.09898,-0.0715 0.006,-0.29315 0.115234,-0.34766 0.109428,-0.0546 0.276319,0.0179 0.347657,0.11719 0.04481,0.0624 -0.04719,0.16985 0,0.23047 0.09776,0.1256 0.365125,-0.008 0.46289,0.11719 0.02359,0.0303 -0.02022,0.0826 0,0.11523 0.09074,0.14655 0.37215,0.0839 0.462891,0.23047 0.02057,0.0332 -0.02848,0.0905 0,0.11719 0.45089,0.42325 1.428309,0.3337 1.851562,-0.11719 0.02629,-0.028 -0.02716,-0.0881 0,-0.11524 0.02762,-0.0276 0.09569,0.0326 0.117188,0 0.1618,-0.24545 -0.259865,-0.52997 -0.347656,-0.81054 -0.01945,-0.0622 -0.0052,-0.13577 -0.03906,-0.19141 -0.04305,-0.0708 -0.157646,-0.0815 -0.193359,-0.15625 -0.01655,-0.0347 0.02716,-0.0881 0,-0.11523 -0.02716,-0.0272 -0.08807,0.0272 -0.115234,0 -0.02716,-0.0272 0.0181,-0.0814 0,-0.11524 -0.0657,-0.12295 -0.281961,-0.10947 -0.347657,-0.23242 -0.0181,-0.0339 0.02716,-0.0881 0,-0.11523 -0.300151,-0.30015 -0.973286,0.30015 -1.273437,0 -0.02716,-0.0272 0.0236,-0.0849 0,-0.11524 -0.09776,-0.1256 -0.332924,-0.0253 -0.462891,-0.11719 -0.113088,-0.0799 -0.135328,-0.24506 -0.230469,-0.3457 -0.132563,-0.14023 -0.279844,-0.28658 -0.46289,-0.34766 -0.109926,-0.0367 -0.265714,0.0819 -0.347656,0 -0.02716,-0.0272 0.02716,-0.0881 0,-0.11523 -0.02716,-0.0272 -0.08807,0.0272 -0.115235,0 -0.02762,-0.0276 0.01503,-0.0811 0,-0.11719 -0.04197,-0.10071 -0.184615,-0.1324 -0.232422,-0.23047 -0.289546,-0.59399 -0.451642,-1.34537 -0.232422,-1.96875 0.01817,-0.0517 0.09065,-0.0673 0.117188,-0.11523 0.172459,-0.31149 -0.04713,-0.82002 0.230469,-1.04297 0.03046,-0.0245 0.08957,0.0276 0.117187,0 0.02716,-0.0272 -0.0147,-0.0797 0,-0.11523 0.0835,-0.2016 0.379386,-0.26129 0.462891,-0.46289 0.0147,-0.0355 -0.01806,-0.0813 0,-0.11524 0.06528,-0.12255 0.280421,-0.10987 0.345703,-0.23242 0.03612,-0.0678 -0.03621,-0.16271 0,-0.23047 0.0657,-0.12295 0.262928,-0.12173 0.347656,-0.23242 0.07433,-0.0971 0.01786,-0.27632 0.117188,-0.34766 0.0312,-0.0224 0.08019,0.0157 0.115234,0 0.423641,-0.19018 0.502141,-0.85083 0.925781,-1.04101 0.352205,-0.15811 0.801522,-0.14774 1.158203,0 0.05019,0.0208 0.06505,0.0944 0.115235,0.11523 0.107065,0.0444 0.236346,-0.0322 0.347656,0 0.833092,0.2413 1.382537,1.68269 2.199219,1.39063 0.114957,-0.0411 0.01625,-0.27619 0.115234,-0.34766 0.03114,-0.0225 0.08117,0.0177 0.115235,0 0.417947,-0.21764 0.668906,-0.70877 0.810546,-1.1582 0.02329,-0.0739 -0.01562,-0.15654 0,-0.23242 0.05916,-0.28736 0.116939,-0.62736 0.347657,-0.8086 0.184831,-0.14519 0.471722,-0.18966 0.695312,-0.11719 0.05212,0.0169 0.06471,0.096 0.115235,0.11719 0.07145,0.03 0.154947,0 0.232421,0 0.07682,0 0.155681,-0.0176 0.230469,0 0.25198,0.0592 0.558986,0.12568 0.695313,0.3457 0.02057,0.0332 -0.02284,0.0855 0,0.11719 0.07102,0.0985 0.27468,0.0167 0.345703,0.11524 0.06776,0.094 0.0141,0.23263 0,0.34765 -0.05805,0.47348 -0.180048,0.94135 -0.345703,1.38868 -0.05996,0.1619 -0.08548,0.37224 -0.232422,0.46289 -0.03269,0.0202 -0.08254,-0.0202 -0.115235,0 -0.146944,0.0907 -0.101893,0.34988 -0.232422,0.46289 -0.09183,0.0795 -0.253873,0.0357 -0.345703,0.11523 -0.130528,0.11301 -0.110439,0.3407 -0.232421,0.46289 -0.0613,0.0614 -0.18414,0.0451 -0.232422,0.11719 -0.279777,0.41774 -0.456898,1.13507 -0.115235,1.50391 0.0261,0.0282 0.08404,-0.0224 0.115235,0 0.09933,0.0713 0.04136,0.25171 0.117187,0.34765 0.2256,0.28543 0.583477,0.45487 0.925781,0.57813 0.549402,0.19784 1.296884,0.61696 1.736328,0.23242 0.02891,-0.0253 -0.02716,-0.0881 0,-0.11524 0.05432,-0.0543 0.176147,0.0543 0.230469,0 0.08194,-0.0819 -0.06109,-0.24918 0,-0.34765 0.04558,-0.0735 0.186837,-0.0418 0.232422,-0.11524 0.04084,-0.0658 -0.05478,-0.17764 0,-0.23242 0.02716,-0.0272 0.08574,0.0246 0.115235,0 0.331371,-0.27637 0.193526,-0.8437 0.232421,-1.27344 0.01737,-0.19192 -0.03071,-0.38788 0,-0.57812 0.01945,-0.12053 0.09578,-0.22713 0.115235,-0.34766 0.104573,-0.64786 -0.164565,-1.33347 0,-1.96875 0.09953,-0.38424 0.446897,-0.66641 0.578125,-1.04101 0.07771,-0.22182 0.04442,-0.47182 0.117187,-0.69532 0.07995,-0.24556 0.297909,-0.43957 0.345703,-0.69335 0.07431,-0.39456 -0.04414,-0.80006 -0.103515,-1.19922 l 43.283203,-0.76954 46.53711,-0.084 -7.94141,-17.10937 -72.166013,6.77539 73.970703,-18.0586 0.69531,-23.84765 -73.624997,27.32031 -27.203125,14.93359 -3.705078,0.34571 0.232422,-1.15625 66.15625,-36.41797 z m -50.017578,16.07812 c -0.348212,-0.17912 -0.599429,0.50772 -0.861328,0.79883 -0.06906,0.0768 -0.117943,0.17 -0.185547,0.24805 -0.210381,0.24288 -0.478071,0.43302 -0.681641,0.68164 -0.0946,0.11554 -0.135846,0.2745 -0.248047,0.37304 -0.03435,0.0302 -0.09299,0.026 -0.123047,0.0606 -0.04332,0.0496 -0.02764,0.1316 -0.0625,0.1875 -0.03093,0.0496 -0.09614,0.0722 -0.125,0.12305 -0.04202,0.074 -0.01853,0.17404 -0.06055,0.24805 -0.02886,0.0508 -0.100175,0.0701 -0.125,0.12304 -0.105697,0.22536 0.0033,0.50407 -0.0625,0.74414 -0.01223,0.0446 -0.05019,0.0799 -0.06055,0.125 -0.04149,0.18085 -0.131201,0.42544 0,0.55664 0.01427,0.0143 0.04275,-0.01 0.06055,0 0.06623,0.0354 0.06853,0.13797 0.125,0.1875 0.03437,0.0301 0.09062,0.0283 0.123046,0.0606 0.03304,0.0328 0.02287,0.10051 0.0625,0.125 0.03544,0.0219 0.08333,0 0.125,0 0.247396,0 0.504403,0.0683 0.742188,0 0.187513,-0.0539 0.343462,-0.18904 0.496094,-0.31055 0.159911,-0.1273 0.332722,-0.25582 0.433593,-0.43359 0.04208,-0.0742 0.02583,-0.17107 0.0625,-0.24805 0.0444,-0.0932 0.152956,-0.15006 0.185547,-0.24804 0.0261,-0.0785 -0.01925,-0.16764 0,-0.24805 0.01071,-0.0447 0.05179,-0.0783 0.0625,-0.12305 0.0385,-0.16082 -0.06328,-0.34331 0,-0.49609 0.01127,-0.0272 0.05122,-0.0353 0.0625,-0.0625 0.142261,-0.34345 0,-0.74349 0,-1.11524 0,-0.30989 -0.01969,-0.62041 0,-0.92968 0.0091,-0.14345 0.182507,-0.36199 0.05469,-0.42774 z m 5.007812,4.63281 c -0.119532,0.005 -0.248895,0.0109 -0.351562,0.0723 -0.276476,0.16541 -0.509386,0.43928 -0.619141,0.74219 -0.01419,0.0392 0.02946,0.0955 0,0.125 -0.02946,0.0295 -0.08828,-0.0197 -0.125,0 -0.197005,0.10564 -0.285548,0.35207 -0.371094,0.55859 -0.120981,0.29207 -0.302686,0.63529 -0.1875,0.92969 0.102444,0.26184 0.418475,0.40052 0.683594,0.49414 0.370697,0.1309 0.81597,0.21638 1.177735,0.0625 0.377156,-0.16042 0.661562,-0.54564 0.804687,-0.92969 0.06479,-0.17387 0,-0.37109 0,-0.55664 0,-0.10352 0.02994,-0.21146 0,-0.31055 -0.04319,-0.14295 -0.20486,-0.23009 -0.248047,-0.37304 -0.01186,-0.0393 0.01715,-0.0858 0,-0.12305 -0.07956,-0.1728 -0.307892,-0.2283 -0.433594,-0.37109 -0.0494,-0.0561 -0.06687,-0.13817 -0.123046,-0.1875 -0.03479,-0.0306 -0.100414,-0.0213 -0.125,-0.0606 -0.01106,-0.0177 0.01383,-0.0469 0,-0.0625 -0.01828,-0.0206 -0.05452,-0.0107 -0.08203,-0.01 z m 160.794924,0.86133 -5.70117,8.79102 -6.81446,-3.00977 -4.50195,4.86914 46.76758,18.98438 -0.81055,3.82031 -37.73633,-6.36719 -3.82031,1.50586 -2.03125,0.91797 -7.11523,5.79492 28.9414,6.01953 -19.46875,-0.89257 6.5918,18.20117 30.17383,-4.14844 c -0.0829,0.34497 -0.0124,0.80034 0.26367,1.01563 0.0226,0.0176 0.0657,-0.0203 0.0859,0 0.0414,0.0414 -0.0262,0.12338 0,0.17578 0.13067,0.26119 0.46272,0.35676 0.70117,0.52539 0.17249,0.12198 0.319,0.31655 0.52734,0.35156 0.68472,0.11508 1.45983,-0.10925 2.01563,-0.52539 0.13675,-0.10238 0.21807,-0.27482 0.26367,-0.43945 0.10132,-0.36579 0.14525,-0.78801 0,-1.13868 -0.077,-0.18583 -0.24226,-0.31157 -0.4082,-0.4375 l 7.38086,-1.01562 c -0.002,0.007 -0.01,0.0107 -0.0117,0.0176 -0.0819,0.32313 -0.12501,0.77171 0.125,0.99218 0.0308,0.0271 0.094,-0.029 0.12304,0 0.11693,0.11693 -0.0872,0.35557 0,0.4961 0.0486,0.0784 0.1994,0.0446 0.24805,0.12305 0.0655,0.10567 -0.0879,0.28511 0,0.37304 0.0585,0.0585 0.20908,-0.0729 0.24805,0 0.0701,0.13123 -0.28638,0.22733 -0.24805,0.3711 0.0238,0.0892 0.1994,0.0446 0.24805,0.12304 0.13074,0.21079 0.0569,0.5027 0,0.74414 -0.0635,0.2698 -0.13539,0.59829 -0.3711,0.74414 -0.0354,0.0219 -0.0912,-0.0244 -0.125,0 -0.1061,0.0767 -0.0437,0.26891 -0.12304,0.37305 -0.0905,0.11876 -0.30251,0.11643 -0.37305,0.24805 -0.0391,0.0729 0.0318,0.17172 0,0.24805 -0.0448,0.10751 -0.19046,0.14485 -0.24805,0.24609 -0.16855,0.29633 -0.24099,0.65135 -0.24804,0.99219 -0.008,0.40875 0.35627,0.80692 0.24804,1.20117 -0.0212,0.0773 -0.11625,0.11195 -0.16211,0.17773 -0.0801,0.11489 -0.18732,0.23312 -0.19336,0.37305 -0.002,0.0528 0.0797,0.0972 0.0606,0.14648 -0.0289,0.0744 -0.15476,0.0514 -0.2168,0.10157 -0.0629,0.0509 -0.12193,0.11632 -0.14648,0.19336 -0.0251,0.0788 -0.0245,0.17183 0.008,0.24804 0.078,0.18496 0.23392,0.35343 0.41797,0.4336 0.40057,0.17449 0.90541,0.18705 1.31055,0.0234 0.21685,-0.0876 0.39689,-0.28431 0.49609,-0.49609 0.25291,-0.5399 -0.27816,-1.37923 0.16211,-1.78125 0.0308,-0.0281 0.0955,0.0295 0.125,0 0.20486,-0.20486 -0.0661,-0.58707 0,-0.86914 0.0421,-0.17972 0.20397,-0.31637 0.24609,-0.49609 0.0282,-0.12044 -0.0392,-0.25377 0,-0.3711 0.0655,-0.19624 0.3075,-0.29985 0.37305,-0.49609 0.0262,-0.0784 -0.0585,-0.18958 0,-0.24805 0.029,-0.029 0.0913,0.026 0.12305,0 0.16294,-0.13333 0.051,-0.42201 0.125,-0.61914 0.11718,-0.31233 0.22383,-0.67639 0.49609,-0.86914 0.37697,-0.26689 1.00865,-0.54398 1.36328,-0.24805 0.032,0.0267 -0.0219,0.0896 0,0.125 0.0972,0.15727 0.3989,0.0908 0.4961,0.24805 0.0216,0.0349 -0.029,0.0941 0,0.12305 0.029,0.029 0.094,-0.029 0.12304,0 0.0295,0.0295 -0.0295,0.0955 0,0.125 0.0295,0.0295 0.084,-0.007 0.125,0 0.34747,0.0628 0.64472,0.30824 0.99219,0.37109 0.0814,0.0147 0.18497,0.0535 0.24805,0 0.57503,-0.48726 -0.20394,-1.74321 0.37109,-2.23047 0.0313,-0.0265 0.094,0.029 0.12305,0 0.0295,-0.0295 -0.016,-0.0865 0,-0.125 0.13424,-0.32409 0.43471,-0.5789 0.74414,-0.74414 0.18617,-0.0994 0.48714,0.0401 0.62109,-0.12305 0.0264,-0.0322 -0.016,-0.0865 0,-0.125 0.0222,-0.0536 0.076,-0.089 0.12305,-0.12304 0.075,-0.0542 0.1995,-0.0462 0.24805,-0.125 0.0215,-0.0349 -0.029,-0.094 0,-0.12305 0.0295,-0.0295 0.0955,0.0295 0.125,0 0.0585,-0.0585 -0.0274,-0.17004 0,-0.24805 0.0876,-0.24952 0.25769,-0.50467 0.49609,-0.61914 0.037,-0.0178 0.0898,0.024 0.12305,0 0.1061,-0.0767 0.0352,-0.27597 0.12304,-0.37304 0.27346,-0.30206 0.71859,-0.41158 1.11719,-0.4961 0.16177,-0.0343 0.35149,-0.0802 0.4961,0 0.3409,0.1891 0.5118,0.61742 0.61914,0.99219 0.20489,0.71538 0.0986,1.49484 0,2.23242 -0.0624,0.46681 -0.44693,0.89846 -0.3711,1.36328 0.024,0.14685 0.19115,0.23362 0.24805,0.3711 0.0807,0.19501 0.0229,0.43531 0.12305,0.62109 0.0277,0.0515 0.10241,0.0691 0.125,0.12305 0.08,0.19096 -0.0792,0.42982 0,0.62109 0.0222,0.0536 0.10084,0.0695 0.12304,0.12305 0.0949,0.22917 -0.0203,0.49693 0,0.74414 0.0206,0.25057 -0.0505,0.56226 0.12305,0.74414 0.40862,0.42815 1.27617,0.7433 1.73633,0.37109 0.0319,-0.0258 -0.029,-0.094 0,-0.12304 0.0295,-0.0295 0.0955,0.0295 0.125,0 0.0295,-0.0295 -0.016,-0.0865 0,-0.125 0.0222,-0.0536 0.1055,-0.0678 0.12305,-0.12305 0.36805,-1.15918 -0.46492,-2.38931 -0.61914,-3.5957 -0.0631,-0.49382 -0.10416,-0.99088 -0.125,-1.48829 -0.0121,-0.2888 -0.15158,-0.62105 0,-0.86718 0.0486,-0.0788 0.19949,-0.0462 0.24804,-0.125 0.043,-0.0699 -0.0479,-0.17951 0,-0.2461 0.0766,-0.10645 0.28046,-0.0321 0.37305,-0.125 0.092,-0.0923 0.0174,-0.29481 0.12305,-0.37109 0.0338,-0.0244 0.0883,0.0197 0.125,0 0.13162,-0.0705 0.20485,-0.2301 0.24804,-0.37305 0.0239,-0.0791 -0.0435,-0.17771 0,-0.24804 0.0482,-0.078 0.17565,-0.0643 0.2461,-0.12305 0.15893,-0.13247 0.18793,-0.40368 0.37304,-0.49609 0.074,-0.0369 0.17778,0.0436 0.24805,0 0.0784,-0.0487 0.0504,-0.19114 0.12305,-0.24805 0.30032,-0.2352 1.46371,-0.14526 1.46371,-0.14526 l 0.005,-26.40094 c 0,0 -0.68505,-0.19643 -0.73915,-0.21859 -0.42052,-0.17225 -1.65021,0.2149 -2.09248,0.11049 -0.17994,-0.0425 -0.32276,-0.18374 -0.4961,-0.24805 -0.15988,-0.0593 -0.34777,-0.0408 -0.49609,-0.125 -0.0505,-0.0286 -0.0695,-0.10084 -0.12305,-0.12304 -0.0764,-0.0316 -0.18958,0.0585 -0.24805,0 -0.0879,-0.0879 0,-0.2487 0,-0.37305 v -0.49609 c 0,-0.0827 -0.0585,-0.18958 0,-0.24805 0.029,-0.029 0.0881,0.0215 0.12305,0 0.0784,-0.0481 0.0466,-0.19797 0.125,-0.24609 0.035,-0.0215 0.0941,0.029 0.12305,0 0.0295,-0.0295 -0.0295,-0.0955 0,-0.125 0.0585,-0.0585 0.18958,0.0585 0.24805,0 0.0585,-0.0585 -0.0484,-0.18105 0,-0.24805 0.0767,-0.1061 0.28401,-0.027 0.37304,-0.12305 0.11584,-0.12493 0.0168,-0.36293 0.12305,-0.49609 0.0577,-0.0724 0.1995,-0.0462 0.24805,-0.125 0.15158,-0.24613 0.2044,-0.66279 0,-0.86719 -0.26286,-0.26286 -0.74829,-0.0596 -1.11524,0 -0.25809,0.0419 -0.53203,0.40093 -0.74414,0.24805 -0.0338,-0.0244 0.022,-0.0896 0,-0.125 -0.0486,-0.0784 -0.1994,-0.0446 -0.24805,-0.12305 -0.19593,-0.31592 0,-0.74349 0,-1.11523 0,-0.0827 -0.0585,-0.18958 0,-0.24805 0.029,-0.029 0.0898,0.024 0.12305,0 0.10645,-0.0766 0.056,-0.26155 0.125,-0.37305 0.0616,-0.0994 0.19294,-0.14491 0.24805,-0.24804 0.0992,-0.18558 0.25654,-0.4565 0.12304,-0.61914 -0.0525,-0.0639 -0.17178,0.0319 -0.24804,0 -0.0539,-0.0226 -0.0676,-0.10632 -0.12305,-0.125 -0.27735,-0.0935 -0.67747,-0.0962 -0.86914,0.125 -0.0541,0.0625 0.0189,0.16754 0,0.24804 -0.0211,0.0899 -0.10199,0.15819 -0.12305,0.24805 -0.0755,0.322 0.23386,0.75833 0,0.99219 -0.0875,0.0875 -0.28362,-0.0875 -0.37109,0 -0.029,0.029 0.029,0.094 0,0.12304 -0.0585,0.0585 -0.17166,0.0316 -0.24805,0 -0.75621,-0.31323 -1.07157,-1.25877 -1.73633,-1.73632 -0.075,-0.0538 -0.18278,-0.0578 -0.24804,-0.12305 -0.0653,-0.0653 -0.0446,-0.1994 -0.12305,-0.24805 -0.0703,-0.0436 -0.18958,0.0585 -0.24805,0 -0.029,-0.029 0.029,-0.094 0,-0.12304 -0.0295,-0.0295 -0.0883,0.0197 -0.125,0 -0.13162,-0.0705 -0.11642,-0.30251 -0.24804,-0.37305 -0.0361,-0.0194 -0.0941,0.029 -0.12305,0 -0.1754,-0.1754 0,-0.49609 0,-0.74414 0,-0.33073 -0.23386,-0.75833 0,-0.99219 0.029,-0.029 0.0897,0.0239 0.12305,0 0.10601,-0.0761 0.0836,-0.24729 0.125,-0.37109 0.0413,-0.1236 0.0174,-0.29481 0.12304,-0.3711 0.067,-0.0484 0.18958,0.0585 0.24805,0 0.0585,-0.0585 -0.0585,-0.18958 0,-0.24804 0.0295,-0.0295 0.0875,0.0181 0.125,0 0.2383,-0.11493 0.4069,-0.37133 0.49414,-0.6211 0.0273,-0.0781 -0.0585,-0.18958 0,-0.24804 0.0295,-0.0295 0.0955,0.0295 0.125,0 0.26286,-0.26286 0,-0.74349 0,-1.11524 0,-0.0827 0.0585,-0.18958 0,-0.24805 -0.0295,-0.0295 -0.0955,0.0295 -0.125,0 -0.029,-0.029 0.0279,-0.0929 0,-0.12304 -0.0971,-0.10496 -0.28472,-0.0331 -0.42773,-0.0332 -0.1469,-1.5e-4 -0.31763,-0.0489 -0.43946,0.0332 -0.0765,0.0516 -0.0692,0.17308 -0.12304,0.24804 -0.0682,0.095 -0.19377,0.14448 -0.24805,0.24805 -0.21439,0.40912 -0.0337,0.95416 -0.24805,1.36328 -0.0543,0.10357 -0.18242,0.15127 -0.24804,0.24805 -0.17659,0.26045 -0.1718,0.62529 -0.37305,0.86719 -0.0952,0.11438 -0.30096,0.11682 -0.37109,0.24804 -0.0193,0.0362 0.0215,0.0881 0,0.12305 -0.14575,0.23611 -0.46722,0.39031 -0.74414,0.37305 -0.1485,-0.009 -0.22872,-0.20485 -0.3711,-0.24805 -0.43547,-0.13214 -0.91169,-0.0373 -1.36523,0 -0.24993,0.0206 -0.50064,0.0557 -0.74219,0.12305 -0.21473,0.0599 -0.40552,0.30485 -0.62109,0.24804 -0.25573,-0.0674 -0.29511,-0.44727 -0.4961,-0.61914 -0.2531,-0.21643 -0.65571,-0.23883 -0.86719,-0.49609 -0.0829,-0.10083 -0.019,-0.29494 -0.125,-0.37109 -0.0333,-0.0239 -0.0869,0.0194 -0.12304,0 -0.13162,-0.0705 -0.136,-0.27433 -0.24805,-0.37305 -0.0692,-0.061 -0.1994,-0.0446 -0.24805,-0.12305 -0.022,-0.0354 0.0196,-0.0883 0,-0.125 -0.0701,-0.13122 -0.26588,-0.14283 -0.37109,-0.24804 -0.10521,-0.10521 -0.11682,-0.30097 -0.24805,-0.3711 -0.0367,-0.0196 -0.0955,0.0295 -0.125,0 -0.0585,-0.0585 0.0555,-0.18673 0,-0.24804 -0.27869,-0.30819 -0.87657,-0.32599 -1.24023,-0.125 -0.0808,0.0447 -0.10199,0.15818 -0.12305,0.24804 -0.0566,0.2415 -0.0949,0.51497 0,0.74414 0.0448,0.10803 0.2033,0.14002 0.24805,0.24805 0.0316,0.0764 -0.0435,0.17772 0,0.24805 0.0972,0.15727 0.34611,0.13994 0.49609,0.24804 0.18972,0.13674 0.32528,0.33638 0.4961,0.4961 0.32084,0.3 0.6435,0.60005 0.99218,0.86718 0.11811,0.0905 0.30097,0.11682 0.3711,0.24805 0.039,0.0729 -0.0316,0.17166 0,0.24805 0.0447,0.10803 0.19518,0.14375 0.24804,0.24804 0.24566,0.48474 0.60188,1.19886 0.24805,1.61133 -0.0271,0.0316 -0.0912,-0.0244 -0.125,0 -0.0289,0.0209 -0.0254,0.0653 -0.0332,0.10157 l -8.50195,-4.15625 c 0.0355,-0.0107 0.0711,-0.0207 0.10742,-0.0274 0.13023,-0.0237 0.27525,0.0125 0.39453,-0.0449 0.18628,-0.0896 0.36014,-0.24662 0.43945,-0.4375 0.0112,-0.0271 -0.0207,-0.0672 0,-0.0879 0.0101,-0.0101 0.0328,-0.0101 0.043,0 0.0207,0.0207 -0.0141,0.0622 0,0.0879 0.0141,0.0256 0.0497,0.0628 0.0742,0.0469 0.58301,-0.37721 -0.0275,-1.42086 -0.29297,-2.0625 -0.056,-0.13536 -0.19847,-0.2204 -0.26367,-0.35157 -0.0473,-0.0952 -0.0339,-0.21502 -0.0879,-0.30664 -0.021,-0.0357 -0.0684,-0.0513 -0.0879,-0.0879 -0.035,-0.0656 -0.0155,-0.14969 -0.043,-0.21875 -0.12128,-0.30536 -0.29548,-0.59926 -0.52539,-0.83398 -0.0737,-0.0752 -0.17248,-0.12123 -0.26367,-0.17383 -0.19798,-0.11421 -0.39286,-0.24623 -0.61329,-0.30664 -0.0352,-0.01 -0.0728,-0.008 -0.10937,-0.008 -0.0366,0 -0.073,0.004 -0.10938,0.008 -0.41126,0.0437 -0.84232,0.0258 -1.22851,0.17383 -0.0491,0.0188 -0.0829,0.0664 -0.13086,0.0879 -0.0552,0.0247 -0.12323,0.015 -0.17578,0.0449 -0.30481,0.17363 -0.46047,0.53777 -0.74414,0.74414 -0.0266,0.0194 -0.063,0.0234 -0.0879,0.0449 -0.0951,0.082 -0.17578,0.18866 -0.21875,0.30664 -0.065,0.17857 -0.0374,0.37846 -0.0449,0.56836 -0.002,0.0585 -0.0184,0.12016 0,0.17578 0.023,0.0693 0.0985,0.11031 0.13086,0.17578 0.0472,0.0953 0.0454,0.20916 0.0879,0.30664 0.068,0.15611 0.18181,0.2882 0.26367,0.4375 0.008,0.014 0.0145,0.0286 0.0215,0.043 z m 28.93164,13.16407 c -0.0846,0.0208 -0.11296,0.23538 -0.0293,0.25976 0.0626,0.0183 0.0905,-0.11072 0.0859,-0.17578 -0.002,-0.0337 -0.0239,-0.092 -0.0566,-0.084 z M 27.398438,166.375 c -0.757403,-0.0411 -1.553892,0.49133 -1.982422,1.11719 -0.0825,0.12049 -0.09856,0.29209 -0.0625,0.43359 0.051,0.20012 0.211795,0.36468 0.371093,0.4961 0.03571,0.0295 0.09211,0.028 0.125,0.0605 0.06557,0.065 0.05795,0.18261 0.123047,0.24805 0.09815,0.0987 0.252005,0.11881 0.373047,0.1875 0.234206,0.1329 0.423087,0.35833 0.681641,0.43359 0.05938,0.0173 0.12633,-0.0179 0.185547,0 0.07106,0.0214 0.119862,0.0885 0.185547,0.12305 0.09876,0.0519 0.200996,0.10378 0.310546,0.125 0.24352,0.0472 0.5151,0.0952 0.744141,0 0.161957,-0.0673 0.295246,-0.2149 0.371094,-0.37305 0.161762,-0.33729 0.214139,-0.75193 0.125,-1.11523 -0.01777,-0.0724 -0.08745,-0.12112 -0.125,-0.18555 -0.139577,-0.23947 -0.196868,-0.52856 -0.371094,-0.74414 -0.16655,-0.20608 -0.409799,-0.33621 -0.621094,-0.49609 -0.141768,-0.10727 -0.256077,-0.30092 -0.433593,-0.31055 z m -14.626954,4.16406 c -0.156912,0.0835 -0.305445,0.41012 -0.410156,0.58203 -0.199535,0.32759 -0.292255,0.71675 -0.351562,1.09571 -0.01127,0.072 -0.05362,0.16934 0,0.21875 0.129213,0.11908 0.382764,0.0597 0.52539,-0.043 0.181104,-0.13032 0.218811,-0.39668 0.263672,-0.61524 0.06754,-0.32908 -0.08946,-0.684 0,-1.00781 0.02263,-0.0819 0.19791,-0.16656 0.13086,-0.21875 -0.05295,-0.0412 -0.105899,-0.0395 -0.158204,-0.0117 z m 4.148438,0.27539 c -0.133756,-0.0341 -0.249987,0.1253 -0.351563,0.21875 -0.05376,0.0495 -0.147768,0.10472 -0.130859,0.17578 0.05291,0.22235 0.412631,0.41608 0.613281,0.30664 0.116136,-0.0633 0.06972,-0.26498 0.04297,-0.39453 -0.02376,-0.11507 -0.05996,-0.27766 -0.173828,-0.30664 z m 202.181638,0.51758 c -0.11317,0.004 -0.22272,0.0533 -0.33594,0.0508 -0.0743,-0.002 -0.14668,-0.061 -0.21874,-0.043 -0.2015,0.0505 -0.31738,0.26839 -0.48243,0.39454 -0.0998,0.0762 -0.23224,0.11761 -0.30664,0.21874 -0.0272,0.037 -0.0189,0.0917 -0.043,0.13086 -0.0328,0.0533 -0.12169,0.0712 -0.13281,0.13282 -0.0627,0.3472 0.20736,0.69716 0.43945,0.96289 0.0907,0.1038 0.21941,0.17551 0.34961,0.2207 0.26408,0.0917 0.55445,0.0872 0.83399,0.0879 0.29313,7.2e-4 0.63294,0.0774 0.875,-0.0879 0.0272,-0.0186 0.0399,-0.0554 0.0449,-0.0879 0.0544,-0.35158 -0.076,-0.71125 -0.17578,-1.05273 -0.0312,-0.10667 -0.0717,-0.21259 -0.13086,-0.30665 -0.0826,-0.13118 -0.18987,-0.24766 -0.30664,-0.3496 -0.04,-0.0349 -0.1007,-0.0456 -0.13281,-0.0879 -0.0281,-0.0371 -0.005,-0.10544 -0.043,-0.13281 -0.0237,-0.0172 -0.0608,0.0112 -0.0879,0 -0.0187,-0.008 -0.0246,-0.0345 -0.043,-0.043 -0.0315,-0.0144 -0.0689,-0.009 -0.10352,-0.008 z m -204.505857,0.008 c -0.107424,-0.0388 -0.179991,0.15626 -0.21875,0.26368 -0.02961,0.0821 -0.02323,0.17762 0,0.26171 0.02263,0.0819 0.05695,0.17684 0.130859,0.21875 0.02548,0.0145 0.06718,0.0207 0.08789,0 0.113246,-0.11325 0,-0.32031 0,-0.48046 0,-0.0879 0.08268,-0.23385 0,-0.26368 z m 208.675777,0.26172 c -0.0259,-0.003 -0.054,-0.008 -0.0781,0.002 -0.22013,0.0887 -0.37088,0.30033 -0.52539,0.48046 -0.0688,0.0802 -0.16168,0.15899 -0.17578,0.26368 -0.0185,0.13732 0.10877,0.25775 0.13086,0.39453 0.002,0.0141 -0.007,0.0308 0,0.043 0.0172,0.0281 0.0707,0.0169 0.0879,0.0449 0.007,0.0122 -0.0101,0.0328 0,0.043 0.0207,0.0207 0.061,-0.0115 0.0879,0 0.019,0.008 0.0233,0.0383 0.043,0.0449 0.18213,0.0618 0.43912,0.0528 0.57031,-0.0879 0.24018,-0.25751 0.20899,-0.72209 0.0879,-1.05274 -0.007,-0.019 -0.0352,-0.0243 -0.043,-0.043 -0.0112,-0.0271 0.0181,-0.0649 0,-0.0879 -0.0394,-0.05 -0.12227,-0.0382 -0.18555,-0.0449 z M 2.5859375,171.82227 c -0.073909,-0.0419 -0.1719548,0.0599 -0.21875,0.13085 -0.1787521,0.2709 -0.1089999,0.64103 -0.1308594,0.96485 -0.00588,0.087 0.00785,0.17483 0,0.26172 -0.014708,0.16279 -0.047296,0.32409 -0.087891,0.48242 -0.023009,0.0897 -0.07305,0.17222 -0.087891,0.26367 -0.01168,0.072 -0.024211,0.14997 0,0.21875 0.031059,0.0882 0.091428,0.17832 0.1757812,0.21875 0.025832,0.0124 0.061503,-0.0149 0.085937,0 0.028064,0.0172 0.016858,0.0707 0.044922,0.0879 0.024989,0.0153 0.067175,-0.0207 0.087891,0 0.010588,0.0106 -0.010588,0.0343 0,0.0449 0.020716,0.0207 0.058744,0.003 0.087891,0 0.074057,-0.008 0.163183,0.005 0.21875,-0.0449 0.034272,-0.0305 0.024294,-0.0889 0.042969,-0.13086 0.047922,-0.10763 0.1454634,-0.19279 0.1757813,-0.30664 0.015078,-0.0566 -0.00815,-0.11776 0,-0.17578 0.014792,-0.1053 0.073098,-0.20134 0.087891,-0.30664 0.044742,-0.31849 0,-0.64323 0,-0.96484 0,-0.16081 0.072173,-0.33873 0,-0.48243 -0.032784,-0.0653 -0.1064413,-0.10788 -0.1757813,-0.13086 -0.02781,-0.009 -0.060824,0.0112 -0.087891,0 -0.038278,-0.0159 -0.049612,-0.072 -0.087891,-0.0879 -0.040299,-0.0167 -0.1000155,0.0308 -0.1308594,0 -0.010126,-0.0101 0.012456,-0.0359 0,-0.043 z m 6.2246094,1.22656 c -0.1733685,-0.0335 -0.1660718,0.3139 -0.21875,0.48242 -0.048766,0.15601 -0.1926003,0.35691 -0.087891,0.48242 0.074655,0.0895 0.2690597,0.0842 0.3496094,0 0.2225187,-0.23265 0.2731326,-0.90385 -0.042968,-0.96484 z m 210.2187531,1.0957 c -0.19308,-0.0479 -0.41066,0.0571 -0.57032,0.17578 -0.0422,0.0313 -0.0594,0.0867 -0.0879,0.13086 -0.075,0.1159 -0.18083,0.21885 -0.21875,0.35156 -0.02,0.0701 -0.0449,0.16127 0,0.21875 0.22256,0.28519 0.72473,0.41623 1.05274,0.26368 0.0296,-0.0137 0.0201,-0.0646 0.043,-0.0879 0.0231,-0.0235 0.0707,-0.0169 0.0879,-0.0449 0.0533,-0.0872 0.0391,-0.21221 0,-0.30664 -0.008,-0.0187 -0.0342,-0.0247 -0.043,-0.043 -0.0575,-0.11922 -0.0374,-0.26238 -0.0449,-0.39453 -8.5e-4,-0.0149 0.006,-0.0311 0,-0.0449 -0.0395,-0.0953 -0.11867,-0.19392 -0.21875,-0.21875 z m 5.40234,0.26367 c -0.0231,0.002 -0.0425,0.0232 -0.0547,0.043 -0.0394,0.0639 0.007,0.16656 -0.0449,0.22071 -0.0831,0.0866 -0.24506,0.027 -0.34961,0.0859 -0.0545,0.0307 -0.10885,0.075 -0.13281,0.13281 -0.0446,0.10767 -0.008,0.23338 0,0.34961 0.008,0.10303 -0.0332,0.2391 0.0449,0.30665 0.0222,0.0192 0.063,-0.0154 0.0879,0 0.0557,0.0344 0.0336,0.13917 0.0879,0.17578 0.1576,0.10621 0.38593,0.0982 0.56836,0.0449 0.0705,-0.0206 0.11488,-0.0918 0.17578,-0.13281 0.0705,-0.0475 0.1745,-0.0583 0.21875,-0.13086 0.12198,-0.19993 0.14843,-0.49108 0.0449,-0.70118 -0.0232,-0.0471 -0.0937,-0.0507 -0.13085,-0.0879 -0.0371,-0.0372 -0.0462,-0.099 -0.0879,-0.13086 -0.0371,-0.0284 -0.0931,-0.0203 -0.13282,-0.0449 -0.0352,-0.0219 -0.0496,-0.072 -0.0879,-0.0879 -0.0403,-0.0167 -0.0887,0.0111 -0.13086,0 -0.0282,-0.007 -0.0471,-0.0452 -0.0762,-0.043 z M 0.51757812,219.32422 c -0.0554759,1.9e-4 -0.12819444,-0.0289 -0.16601562,0.0117 -0.0199731,0.0214 -0.0157375,0.0632 0,0.0879 0.0347338,0.0545 0.16152905,0.019 0.17578125,0.082 0.0254845,0.11277 -0.14295284,0.18201 -0.22070313,0.26758 -0.0835854,0.092 -0.30273437,0.26758 -0.30273437,0.26758 l -0.0019531,1.99219 c 0,0 0.77184498,-0.20078 1.05078125,-0.37501 0.2715092,-0.16959 0.629869,-0.34417 0.7011718,-0.65625 0.045403,-0.19872 -0.1094508,-0.3995 -0.2207031,-0.57031 -0.033668,-0.0517 -0.09479,-0.0808 -0.1308593,-0.13086 -0.076608,-0.10629 -0.092699,-0.25025 -0.1757813,-0.35156 -0.10562,-0.12879 -0.29284141,-0.17472 -0.39453123,-0.30664 -0.0678488,-0.088 -0.0401283,-0.24247 -0.13085937,-0.30664 -0.0500654,-0.0354 -0.12227168,-0.0119 -0.18359376,-0.0117 z m 32.15429688,0.0527 c -0.0049,-0.003 -0.01186,4.8e-4 -0.01758,0.002 -0.07621,0.0192 -0.142607,0.0685 -0.21875,0.0879 -0.242018,0.0617 -0.519397,-0.0211 -0.744141,0.0879 -0.03728,0.0181 -0.04961,0.072 -0.08789,0.0879 -0.02707,0.0112 -0.06171,-0.0131 -0.08789,0 -0.06528,0.0328 -0.07465,0.12913 -0.130859,0.17578 -0.02509,0.0208 -0.07062,0.0153 -0.08789,0.043 -0.01551,0.0248 -0.002,0.0587 0,0.0879 0.0072,0.10296 0.023,0.20538 0.04297,0.30664 0.0117,0.0593 0.007,0.1287 0.04492,0.17578 0.02011,0.0249 0.06395,0.0197 0.08594,0.043 0.07689,0.0814 0.05452,0.22852 0.132813,0.30859 0.269261,0.27537 0.671745,0.54876 1.050781,0.48047 0.142261,-0.0256 0.248483,-0.1743 0.306641,-0.30664 0.141048,-0.32095 0.12788,-0.71016 0.04492,-1.05078 -0.02788,-0.11447 -0.128094,-0.19891 -0.175781,-0.30664 -0.01883,-0.0426 -0.0053,-0.10544 -0.04297,-0.13281 -0.02369,-0.0172 -0.06435,0.0174 -0.08789,0 -0.02515,-0.0186 -0.0012,-0.0726 -0.02734,-0.0899 z M 2.9375,219.51172 c -0.2152422,0.0704 -0.1732938,0.4298 -0.1757812,0.65625 -6.626e-4,0.0603 -0.00448,0.13853 0.042969,0.17578 0.023045,0.0181 0.061663,-0.0131 0.087891,0 0.065743,0.0327 0.074479,0.13117 0.1328125,0.17578 0.06242,0.0477 0.1520369,0.12941 0.21875,0.0879 0.161848,-0.10075 0.079764,-0.38325 0.042969,-0.57031 -0.012644,-0.0643 -0.065244,-0.11431 -0.087891,-0.17578 -0.020634,-0.056 -0.010855,-0.12352 -0.042969,-0.17383 -0.050329,-0.0788 -0.1298427,-0.20486 -0.21875,-0.17578 z m 209.5,0.37305 c -0.0648,-0.0119 -0.13029,0.0243 -0.19141,0.0488 -0.17614,0.0706 -0.40032,0.11547 -0.49609,0.2793 -0.0154,0.0264 -0.006,0.0618 0,0.0918 0.0372,0.18664 0.0986,0.37974 0.21875,0.52734 0.0234,0.0287 0.0674,0.0346 0.0918,0.0625 0.0153,0.0175 0.0114,0.0503 0.0312,0.0625 0.0177,0.011 0.0478,-0.0147 0.0625,0 0.007,0.007 -0.004,0.0203 0,0.0293 0.0222,0.0541 0.089,0.0774 0.12304,0.125 0.0135,0.0189 0.0135,0.0474 0.0312,0.0625 0.0249,0.0212 0.0688,0.008 0.0937,0.0293 0.0177,0.0151 0.0114,0.0502 0.0312,0.0625 0.0172,0.0106 0.0419,-0.008 0.0605,0 0.0136,0.006 0.0175,0.0262 0.0312,0.0313 0.12618,0.0466 0.27504,0.0122 0.40234,-0.0313 0.0707,-0.0242 0.11587,-0.10164 0.1875,-0.12304 0.01,-0.003 0.023,0.006 0.0312,0 0.0264,-0.0194 0.0158,-0.064 0.0293,-0.0937 0.0248,-0.0548 0.0776,-0.0964 0.0937,-0.1543 0.0251,-0.0897 0.0251,-0.18965 0,-0.2793 -0.0162,-0.058 -0.0776,-0.0963 -0.0937,-0.15429 -0.003,-0.01 0.005,-0.0223 0,-0.0312 -0.0118,-0.0194 -0.0421,-0.0179 -0.0606,-0.0312 -0.0592,-0.043 -0.094,-0.11581 -0.15625,-0.1543 -0.0275,-0.017 -0.0674,-0.01 -0.0918,-0.0312 -0.0175,-0.0153 -0.0155,-0.0454 -0.0312,-0.0625 -0.0408,-0.0443 -0.10395,-0.0608 -0.1543,-0.0937 -0.0833,-0.0545 -0.14626,-0.15387 -0.24414,-0.17187 z m -201.232422,0.40429 c -0.0244,1.6e-4 -0.05054,6.2e-4 -0.07227,0.0117 -0.03688,0.0189 -0.0526,0.0662 -0.08789,0.0879 -0.03911,0.0241 -0.09624,0.0128 -0.13086,0.043 -0.02459,0.0214 -0.01991,0.0648 -0.04297,0.0879 -0.02306,0.0231 -0.06475,0.02 -0.08789,0.043 -0.116115,0.11529 -0.181297,0.28017 -0.21875,0.43945 -0.03681,0.15654 -0.06154,0.33386 0,0.48243 0.05532,0.13354 0.214805,0.19501 0.306641,0.30664 0.03338,0.0406 0.05037,0.0941 0.08789,0.13086 0.173571,0.17016 0.380069,0.32599 0.613282,0.39453 0.196132,0.0576 0.409683,0.0184 0.613281,0 0.162791,-0.0147 0.358959,0.0192 0.482422,-0.0879 0.06998,-0.0607 0.06961,-0.17285 0.08789,-0.26368 0.03749,-0.18626 0.08302,-0.38263 0.04297,-0.56836 -0.03863,-0.17914 -0.186069,-0.3164 -0.263672,-0.48242 -0.03317,-0.071 -0.03333,-0.1607 -0.08594,-0.21875 -0.0221,-0.0244 -0.06328,-0.0231 -0.08789,-0.0449 -0.0393,-0.0349 -0.04841,-0.0962 -0.08789,-0.13086 -0.122951,-0.10797 -0.277651,-0.19437 -0.439454,-0.21875 -0.08742,-0.0132 -0.173313,0.0423 -0.261718,0.043 -0.123743,9.2e-4 -0.243444,-0.0555 -0.367188,-0.0547 z m -9.0039061,4.9043 c -0.1347306,-0.006 -0.2695105,0.011 -0.4042969,0.0156 -0.4966764,0.0171 -1.79882813,0.40037 -1.79882813,0.40037 l 0.00390651,3.9082 c 0,0 0.50144267,0.25899 0.83007812,0.42578 0.4167416,0.2115 0.8789161,0.31808 1.3164062,0.48242 0.190035,0.0714 0.3687744,0.18167 0.5683594,0.21875 0.1581014,0.0294 0.3216147,0 0.4824219,0 0.1171873,0 0.2686984,0.0829 0.3515624,0 0.010128,-0.0101 -0.010128,-0.0328 0,-0.043 0.010128,-0.0101 0.029899,0.006 0.042969,0 0.1607325,-0.0721 0.2888622,-0.22992 0.3515625,-0.39453 0.015758,-0.0414 -0.00841,-0.0893 0,-0.13281 0.01492,-0.0771 0.072971,-0.1416 0.087891,-0.21875 0.011125,-0.0575 -0.011125,-0.11825 0,-0.17578 0.01492,-0.0771 0.072971,-0.1416 0.087891,-0.21875 0.05822,-0.30106 0.049566,-0.61731 0,-0.91992 -0.02243,-0.13694 -0.096138,-0.26071 -0.1328126,-0.39454 -0.055244,-0.2016 -0.075469,-0.41172 -0.1308593,-0.61328 -0.012384,-0.0451 -0.034507,-0.0872 -0.044922,-0.13281 -0.1049709,-0.45918 -0.036897,-0.95166 -0.1738281,-1.40234 -0.028609,-0.0942 -0.067321,-0.19023 -0.1328125,-0.26367 -0.034729,-0.0389 -0.096362,-0.0468 -0.1308594,-0.0859 -0.021557,-0.0245 -0.015306,-0.0706 -0.042969,-0.0879 -0.012702,-0.008 -0.031911,0.007 -0.044922,0 -0.074317,-0.0423 -0.053239,-0.18479 -0.1308594,-0.22071 -0.080914,-0.0374 -0.1747034,0.0507 -0.2636719,0.0449 -0.1985084,-0.0129 -0.3759051,-0.13361 -0.5703125,-0.17579 -0.039774,-0.009 -0.080436,-0.0138 -0.1210937,-0.0156 z"
       sodipodi:nodetypes="ccccsssssscscsscssscssscssssssssssssscssscsscscsccsccsssscsscssssssssssscscssscccscssscsscccsccscsscssssssscssscsscsssssscsssscsscsssscssccssccssscssssscsssssscssssccscsscssscscscsccssscssssssscscsssscssscsscsssssscsssssscssssssssssssssssssssssccccccccccccccsssscssssscscccsscssssssscscsccsscsssssssssscsscccscccccccccccsccsssssccsscsssssscscsssscsscssscsssssssssscssscsssscscsscsscssssssccssssssssscsssssccssssssscssssssssccsccsssscssssssssssscsssccssscssssssccsssscscsscsssscsssssssssssssssccssssssscsssssscsscscssssssssccsssscscsssscsscscsscscsccccscccsscsssscsssccssssssssssssssssscsscssccccsscsssscscsscccccssccscccssccccccsscscccssssssccssccsssssscccsccssscsscsccscccscscscsscssssssssscsccsssssssssssssssssccscsscsscscssssscssscssssssssscsscscsssccssscssscccsccssscssscssscssssssscsscssccsssssssssssccsssccssccsscsssssssscsssccssccs" />
  </g>
  <g
     inkscape:groupmode="layer"
     id="layer4"
     inkscape:label="Image 3"
     style="display:inline;opacity:1"
     transform="translate(0.00195313,-141.99805)">
    <path
       id="path24"
       style="display:inline;fill:#e52226;fill-opacity:1"
       d="m 179.4375,203.1875 3.6875,13.5 22.4375,-0.9375 -1.0625,-4.5625 -4.5625,-7.6875 z m 45.875,7.3125 -2.4375,0.0625 -0.375,4.125 1.0625,0.1875 z m -8.3125,0.6875 -10.5625,0.1875 0.9375,4.9375 8.125,-0.1875 z m 5.0625,0.375 -3.5625,0.0625 -1,4.625 h 3.5 z" />
    <path
       id="path28"
       style="display:inline;fill:#e9a723;fill-opacity:1"
       d="m 171.75,179.25 -3.9375,13.5 21.3125,3.1875 5.75,-12.5 z m 2.875,15.75 -3.5,2.6875 16.5,3.5625 2.625,-2.8125 z m 16.625,3.125 -1.62891,2.76953 2.60352,0.002 1.41406,-2.625 z m 5.72461,1.51172 -0.90039,2.77539 1.1582,0.11719 0.63867,-2.83203 z m -2.91211,0.0625 -1.48242,2.1543 2.53125,0.73828 0.875,-2.8711 z" />
    <path
       id="path33"
       style="display:inline;fill:#66b344;fill-opacity:1"
       d="m 183.0957,155.96094 -2.07617,12.77148 14.23047,6.67383 3.40234,-11.71094 z m -6.4082,14.9375 -3.22461,2.34179 20.59375,8.70704 3.49219,-2.03321 z m 22.89258,9.19336 -3.26953,1.98828 2.29883,1.36914 3.44726,-2.07617 z" />
  </g>
  <g
     inkscape:groupmode="layer"
     id="layer1"
     inkscape:label="texto"
     style="display:inline;opacity:1"
     transform="translate(0.00195313,-141.99805)">
    <text
       xml:space="preserve"
       style="font-style:normal;font-variant:normal;font-weight:bold;font-stretch:normal;font-size:10px;font-family:'Microgramma D Extended';-inkscape-font-specification:'Microgramma D Extended Bold';letter-spacing:-0.7px;word-spacing:0px;fill:#ffffff;fill-opacity:1;stroke:#000000;stroke-width:2.5;stroke-dasharray:none;paint-order:stroke fill markers"
       x="255.56079"
       y="66.503067"
       id="text38"
       transform="rotate(27.206076)"
       inkscape:label="acao"><tspan
         sodipodi:role="line"
         id="tspan38"
         x="255.56079"
         y="66.503067"
         style="font-size:10px;letter-spacing:-0.7px;stroke:#000000;stroke-width:2.5;stroke-dasharray:none;paint-order:stroke fill markers">Ação</tspan></text>
    <text
       xml:space="preserve"
       style="font-style:normal;font-variant:normal;font-weight:bold;font-stretch:normal;font-size:10.6667px;font-family:'Microgramma D Extended';-inkscape-font-specification:'Microgramma D Extended Bold';letter-spacing:-0.7px;word-spacing:0px;fill:#ffffff;fill-opacity:1;stroke:#000000;stroke-width:2.5;stroke-dasharray:none;paint-order:stroke fill markers"
       x="220.14629"
       y="158.0251"
       id="text39"
       transform="rotate(9.842335)"
       inkscape:label="magia"><tspan
         sodipodi:role="line"
         id="tspan39"
         x="220.14629"
         y="158.0251"
         style="font-size:10.6667px;stroke:#000000;stroke-width:2.5;stroke-dasharray:none;paint-order:stroke fill markers">Magia</tspan></text>
    <text
       xml:space="preserve"
       style="font-style:normal;font-variant:normal;font-weight:bold;font-stretch:normal;font-size:10.6667px;font-family:'Microgramma D Extended';-inkscape-font-specification:'Microgramma D Extended Bold';letter-spacing:-0.7px;word-spacing:0px;fill:#ffffff;fill-opacity:1;stroke:#000000;stroke-width:2.5;stroke-dasharray:none;paint-order:stroke fill markers"
       x="201.1875"
       y="209.4375"
       id="text40"
       inkscape:label="vida"><tspan
         sodipodi:role="line"
         id="tspan40"
         x="201.1875"
         y="209.4375">Vida</tspan></text>
    <g
       id="g45">
      <g
         id="g51"
         style="display:inline">
        <text
           xml:space="preserve"
           style="font-style:normal;font-variant:normal;font-weight:bold;font-stretch:normal;font-size:10.6667px;font-family:'Microgramma D Extended';-inkscape-font-specification:'Microgramma D Extended Bold';letter-spacing:-0.18px;word-spacing:0px;display:inline;fill:#ffffff;fill-opacity:1;stroke-width:4;stroke-dasharray:none"
           x="-15.981413"
           y="218.91624"
           id="text50"
           transform="rotate(-8.4593971)"
           inkscape:label="esistencia"><tspan
             sodipodi:role="line"
             id="tspan50"
             x="-15.981413"
             y="218.91624"
             style="stroke:#000000;stroke-width:4;stroke-dasharray:none;paint-order:stroke fill markers"><tspan
   style="font-size:24px;fill:#e52226;fill-opacity:1"
   id="tspan62">R</tspan>ESISTÊNCIA</tspan></text>
      </g>
    </g>
    <g
       id="g44"
       transform="translate(-16.625,9.625)">
      <g
         id="g47"
         style="display:inline">
        <text
           xml:space="preserve"
           style="font-style:normal;font-variant:normal;font-weight:bold;font-stretch:normal;font-size:10.6667px;font-family:'Microgramma D Extended';-inkscape-font-specification:'Microgramma D Extended Bold';letter-spacing:-0.18px;word-spacing:0px;display:inline;opacity:1;fill:#ffffff;fill-opacity:1;stroke:#000000;stroke-width:4;stroke-dasharray:none;paint-order:stroke fill markers"
           x="-75.130302"
           y="169.68422"
           id="text37"
           transform="rotate(-34.729021)"
           inkscape:label="oder"><tspan
             sodipodi:role="line"
             id="tspan37"
             x="-75.130302"
             y="169.68422"><tspan
   style="font-size:24px;fill:#66b344;fill-opacity:1;paint-order:stroke markers fill"
   id="tspan60">P</tspan>ODER</tspan></text>
      </g>
    </g>
    <g
       id="g43"
       style="display:inline"
       transform="translate(-20.625,8)">
      <g
         id="g46"
         style="display:inline">
        <text
           xml:space="preserve"
           style="font-style:normal;font-variant:normal;font-weight:bold;font-stretch:normal;font-size:10.6667px;font-family:'Microgramma D Extended';-inkscape-font-specification:'Microgramma D Extended Bold';letter-spacing:-0.18px;word-spacing:0px;fill:#ffffff;fill-opacity:1;stroke-width:4;stroke-dasharray:none"
           x="-13.402603"
           y="199.87817"
           id="text36"
           transform="rotate(-18.637522)"
           inkscape:label="abilidade"><tspan
             sodipodi:role="line"
             id="tspan36"
             x="-13.402603"
             y="199.87817"
             style="stroke:#000000;stroke-width:4;stroke-dasharray:none;paint-order:stroke fill markers"><tspan
   style="font-size:24px;fill:#f7b11c;fill-opacity:1"
   id="tspan63">H</tspan>ABILIDADE</tspan></text>
      </g>
    </g>
  </g>
</svg>
