<?xml version="1.0" encoding="UTF-8" standalone="no"?>
<!-- Created with Inkscape (http://www.inkscape.org/) -->

<svg
   version="1.1"
   id="svg1"
   width="68.989594"
   height="49.987698"
   viewBox="0 0 68.989594 49.987698"
   sodipodi:docname="baralho das arcas.png"
   xml:space="preserve"
   xmlns:inkscape="http://www.inkscape.org/namespaces/inkscape"
   xmlns:sodipodi="http://sodipodi.sourceforge.net/DTD/sodipodi-0.dtd"
   xmlns="http://www.w3.org/2000/svg"
   xmlns:svg="http://www.w3.org/2000/svg"><defs
     id="defs1" /><sodipodi:namedview
     id="namedview1"
     pagecolor="#ffffff"
     bordercolor="#000000"
     borderopacity="0.25"
     inkscape:showpageshadow="2"
     inkscape:pageopacity="0.0"
     inkscape:pagecheckerboard="0"
     inkscape:deskcolor="#d1d1d1" /><g
     inkscape:groupmode="layer"
     id="layer3"
     inkscape:label="Image 3"
     transform="translate(-0.08260439,0.2896344)"><g
       id="g2"
       transform="matrix(0.47526042,0,0,0.47879498,-0.15582532,-0.30885494)"
       style="display:inline;opacity:1"><path
         fill="#f9b314"
         opacity="1"
         stroke="none"
         d="m 127.58818,11.073731 c -1.4403,1.726904 -2.06787,0.474864 -5.00132,-0.09278 -0.3088,-0.05976 0.68411,-1.0333498 0.99865,-1.0401762 4.40228,-0.095541 1.53052,-0.8808856 5.91816,-0.5122409 0.18415,0.015472 0.28084,0.9090011 0.21767,1.0813921 -0.0515,0.140664 -2.09371,0.516501 -2.13316,0.563801 z"
         id="path13-73"
         style="display:inline;stroke-width:0.751035"
         sodipodi:nodetypes="sssssss" /><path
         fill="#f9b314"
         opacity="1"
         stroke="none"
         d="m 34,1 c 0.644714,-1.57688819 3.925432,-1.00704692 5.217445,0.244743 C 42.259124,4.1917294 43.558884,7.165 47.98848,4.178249 49.597588,3.093275 55,6.2279313 55,3.647911 V 1 c 0,-1.05880655 2.982494,-0.82148181 3.251709,0.295843 1.211177,5.0267529 5.047106,10.822402 7.576874,7.850885 3.939608,-4.6275435 5.129349,-10.4169145 5.129349,-5.624542 v 5.450757 c 0,1.70479 4.699691,-5.4936906 5.806739,-2.683376 1.719042,4.363901 -4.077103,7.199798 -3.779167,11.122094 0.116504,1.53376 3.352593,0.544357 3.996849,-0.08935 3.849137,-3.786125 8.100197,-2.141666 12.461235,-1.674676 1.800095,0.192758 4.304108,-0.798082 5.561905,-2.127062 2.176628,-2.299809 3.507477,-3.320183 6.463037,-0.847567 4.55887,3.813947 10.48364,6.199008 15.97877,3.878471 C 126.47948,12.737264 135.73566,11.954652 145,13 c 1.06774,0.120479 0.7954,2.693764 -0.4507,3.600021 -1.73771,1.26379 -3.83964,0.121271 -5.43619,0.453064 -4.69954,0.976651 -9.83052,1.302569 -13.91646,3.507094 -8.26963,4.461786 -15.77732,10.32324 -23.98436,14.91984 -3.227953,1.807914 -2.656206,3.559852 -2.560114,5.584518 0.09696,2.042908 3.654854,-1.852309 4.918544,-0.783112 0.6602,0.558585 0,2.583249 0,2.583249 0,2.311324 4.30287,-1.747348 4.07885,5.239273 -0.0839,2.616979 3.30164,-1.979725 4.34809,-2.601204 0.83851,-0.497971 1.78045,-1.526791 2.50628,-1.393463 4.27005,0.784366 10.20975,-0.788577 12.97317,2.860881 3.85057,5.085182 -0.57209,7.544732 -7.37019,5.682999 -3.93442,-1.077484 -10.81005,-4.101993 -12.40061,1.469456 -0.83168,2.913228 5.73099,1.418144 8.08921,2.974251 0.54944,0.362557 -0.56327,0.9994 -0.63475,1.437648 -0.71733,4.397701 -4.83756,0.589939 -5.90711,2.287846 -1.18928,1.887966 -0.7728,4.727543 -1.73539,6.843487 -0.48015,1.055465 -4.45995,0.402925 -4.19699,2.310203 0.29932,2.171032 3.08357,1.627938 4.26603,2.084198 4.33856,1.674066 8.81497,4.783081 13.02297,4.467247 3.73366,-0.280212 5.47571,0.844544 7.33827,3.013176 2.19131,2.551407 1.11274,8.234253 -1.66203,10.696228 -3.25519,2.888207 -5.86095,1.24189 -7.8163,-1.394119 -1.54455,-2.082199 -1.11515,-5.593091 -4.03321,-8.353783 -3.07526,-2.90941 -8.76526,-6.416172 -13.92924,-5.972595 -2.505902,0.215253 -0.21752,4.838259 -0.70335,4.966126 -5.437632,1.431154 -2.011238,4.190712 -1.210517,6.625808 C 100.44057,91.72422 102.92024,97.190109 104,103 c 0.13606,0.73211 -1.9499,0.60235 -2.62985,-0.36476 -3.793212,-5.395234 -5.773867,-11.304887 -8.908976,-16.51114 -1.07402,-1.783547 -3.163898,-4.730908 -5.327965,-4.08252 -2.340337,0.701201 -2.260582,4.325302 -3.089645,6.597847 -1.036492,2.84111 0.144078,6.813692 -3.071243,8.631871 -2.463564,1.39308 -4.491239,-4.976089 -4.780297,-2.886868 C 75.794683,97.256287 75,103 75,103 c -0.188971,1.36582 -3.742318,1.21363 -4.583336,-0.42941 -2.587921,-5.055836 -0.58394,-11.141498 -2.835136,-15.297084 -0.85147,-1.571767 -1.439603,6.425368 -4.766413,6.251209 -3.254734,-0.170385 -0.849894,-4.945804 -1.846655,-6.486072 -0.628246,-0.970825 -1.91538,-1.529217 -2.925606,-2.192299 -0.03547,-0.02328 0.248525,-0.135167 -0.134952,-0.272781 C 54.04649,83.18786 50.174129,80.44298 46.05817,81.678459 c -3.067321,0.920712 -3.236057,0.02645 -8.36269,-0.188812 -3.202129,-0.134451 1.503588,5.552093 0.563897,7.64315 -0.881182,1.960858 -7.505189,7.948714 -6.50949,4.637619 0.659491,-2.193069 1.318981,-4.386139 1.978472,-6.579208 0.922942,-3.06915 -6.654123,-1.678429 -8.259729,-3.728935 -3.684061,-4.704865 -3.202252,-10.426468 -0.23914,-14.30819 0.622214,-0.815101 0.475138,-2.18531 0.809677,-3.260162 0.431134,-1.385208 0.689972,-3.017552 1.611098,-3.981499 0.521866,-0.546123 2.994859,-0.332119 3.234739,0.177292 0.569794,1.210011 0.580935,2.838565 0.201654,4.428757 -0.152121,0.637792 -1.074748,1.102764 -0.711601,1.213814 0.580284,0.17745 1.136754,-0.420353 2.050709,-0.682358 1.422028,-0.407656 3.153375,-0.541696 3.440006,-1.248886 1.657151,-4.088594 -0.288181,-7.965359 -4.835281,-9.803151 -4.004425,-1.618454 -5.519092,-4.037283 -5.536894,-8.111156 -0.0075,-1.724279 -0.947981,-3.319963 -1.521742,-4.914604 -0.01848,-0.05137 -0.120774,0.0601 0.268864,0.07531 1.433193,0.05594 3.229957,1.394692 3.511156,0.391804 2.646669,-9.439288 2.594956,-8.234756 7.804617,-10.512009 6.645737,-2.904992 -3.753644,-13.430053 1.142361,-13.740318 L 41.544079,18.87987 C 48.486037,18.439951 42.343685,9.574136 37.286907,5.602381 35.864071,4.484839 33.284422,2.7502132 34,1 Z"
         id="path1"
         style="display:inline"
         sodipodi:nodetypes="ssssssssssssssssssssssssssssssssssssssssssssssssssssssssssssssssssssssssssssssssss" /><path
         fill="#000000"
         opacity="1"
         stroke="none"
         d="m 58.03492,84.804871 c 1.001022,0.729591 2.305294,1.262947 2.93354,2.233772 0.996761,1.540268 1.541733,3.372909 2.823044,6.347618 1.746117,-2.816223 2.847702,-4.592926 3.790024,-6.112755 C 68.339218,91.931465 69.169609,97.036331 70,102.57059 64.977905,103 59.955814,103 54.466858,102.59196 53.68774,100.65681 53.886826,98.47155 52.952248,97.745468 51.232719,96.409538 48.675091,94.961601 46.773384,95.297295 42.738361,96.00959 42.851707,99.706093 43,103 29.066912,103 15.133823,103 1,103 1,86.646317 1,70.291817 1.248387,53.131302 7.408723,57.234398 8.489626,56.997849 13.257277,51.310966 16.191494,47.811016 14.8696,40.735935 9.949639,40.157059 7.039768,39.81469 3.987974,40.678555 1,41 1,27.747093 1,14.494184 1,1 c 10.686353,0 21.374517,0 32.531342,0 1.546749,1.556465 2.332729,3.484839 3.755565,4.602381 5.056778,3.971755 6.058418,6.608256 4.257172,13.277492 -1.37624,0.08721 -2.820767,0.178755 -4.845226,0.307047 1.246887,4.709847 4.440135,9.130623 -1.142361,13.740318 -5.68359,0.31495 -6.173901,0.84858 -7.804617,10.512009 -1.038908,-0.142273 -2.0809,-0.284965 -3.369476,-0.744881 0.251907,-1.710742 0.750396,-3.10427 1.248888,-4.497798 -1.720375,-0.500473 -3.440749,-1.000947 -5.161122,-1.50142 -0.233299,0.391873 -0.466596,0.783749 -0.699896,1.175622 1.277464,1.779132 -2.142456,6.810031 4.235438,5.058391 0.495964,1.652523 0.991926,3.30505 1.48789,4.957573 -0.471058,4.046989 1.532469,6.492702 5.536894,8.111156 4.5471,1.837792 6.492435,5.714558 4.835281,9.803151 -0.286628,0.707191 -2.022159,0.827125 -3.629944,1.058395 -0.670536,-0.284454 -0.799564,-0.409012 -0.928592,-0.533569 -0.08918,-1.436333 0.147562,-3.026142 -0.422232,-4.236153 -0.23988,-0.509411 -2.712873,-0.723415 -3.234739,-0.177292 -0.921126,0.963947 -1.179964,2.596291 -1.611098,3.981499 -0.334539,1.074852 -0.187463,2.445061 -0.809677,3.260162 -2.963112,3.881722 -3.444921,9.603325 0.23914,14.30819 1.605606,2.050506 5.291878,2.471794 8.259729,3.728935 -0.426636,1.418732 -1.045822,3.477775 -1.978472,6.579208 2.828108,-2.014854 4.752207,-3.385658 6.50949,-4.637619 -0.168477,-2.283546 -0.329812,-4.470314 -0.563897,-7.64315 3.885975,3.326172 6.659863,2.8834 8.36269,0.188812 4.198231,0.923279 7.912064,1.740029 11.565152,3.306725 -1.959988,0.698356 -4.104165,0.09322 -5.673382,0.787529 -1.066796,0.472038 -1.727886,2.739166 -1.825211,4.251526 -0.08063,1.252845 0.747536,3.517906 1.494454,3.661369 1.340042,0.257408 3.734989,-0.322418 4.2388,-1.299889 1.181385,-2.292045 1.505691,-5.025863 2.176937,-7.580848 M 19.426167,77.913025 c 0.844526,-0.973778 2.138196,-1.840645 2.402822,-2.952446 0.247263,-1.038849 -0.316683,-2.594757 -1.072571,-3.420624 -0.419004,-0.457794 -2.374347,-0.267166 -2.905361,0.307472 -0.862709,0.933579 -1.553017,2.443642 -1.491917,3.669289 0.0418,0.838448 1.484192,1.607079 3.067027,2.396309 z"
         id="path2"
         style="display:none" /><path
         fill="#000000"
         opacity="1"
         stroke="none"
         d="m 104.46866,103 c -2.26541,-5.632294 -4.02809,-11.27578 -5.874757,-16.891663 -0.800721,-2.435096 -4.227112,-5.194641 1.210517,-6.625808 0.48583,-0.127854 0.3837,-2.48967 0.70335,-4.966126 4.75831,2.040268 10.02923,4.300339 13.92924,5.972595 1.70174,3.627388 2.48866,6.271584 4.03321,8.353783 1.95535,2.636009 4.56111,4.282326 7.8163,1.394119 2.77477,-2.461975 3.85334,-8.144821 1.66203,-10.696228 -1.86256,-2.168632 -3.60461,-3.293388 -7.33827,-3.013176 -4.208,0.315834 -8.68441,-2.793174 -13.02297,-4.467247 -1.18246,-0.456253 -2.28895,-1.109359 -4.26603,-2.084198 1.72008,-0.889206 3.71684,-1.254738 4.19699,-2.310203 0.96259,-2.115944 0.54611,-4.955521 1.73539,-6.843487 1.06955,-1.697907 5.18979,2.109856 5.90711,-2.287846 0.0715,-0.438247 0.36399,-0.840438 0.63475,-1.437648 -2.65543,-0.976353 -5.22869,-1.92249 -8.08921,-2.974251 4.2832,-3.931637 8.46619,-2.54694 12.40061,-1.469456 6.7981,1.861733 8.41276,0.593697 7.37019,-5.682999 -4.48296,-1.020488 -8.70312,-2.076515 -12.97317,-2.860881 -0.72583,-0.133328 -1.66777,0.895492 -2.50628,1.393463 -1.04645,0.621479 -2.08917,1.249222 -4.34809,2.601204 2.42598,-6.562279 -1.81887,-4.68264 -4.07885,-5.239273 0,-0.911671 0,-1.74746 0,-2.583249 -1.4659,0.233395 -2.9318,0.46679 -4.918544,0.783112 -0.09609,-2.024666 -0.667839,-3.776604 2.560114,-5.584518 8.20704,-4.5966 15.71473,-10.458054 23.98436,-14.91984 4.08594,-2.204525 9.21692,-2.530443 13.91646,-3.507094 C 140.70966,16.721292 142.43314,17.000172 144.5493,17 145,45.567562 145,74.135124 145,103 c -13.35275,0 -26.70772,0 -40.53134,0 M 128.7608,39.995338 c 1.2929,-0.34592 2.58579,-0.691841 3.87866,-1.037761 -0.0803,-0.292923 -0.16061,-0.585846 -0.24092,-0.878769 -4.39819,-0.374172 -8.79638,-0.748348 -13.19458,-1.122524 -0.0539,0.545475 -0.10783,1.09095 -0.16175,1.636425 2.97735,0.45745 5.95471,0.914905 9.71859,1.402629 z"
         id="path3"
         style="display:none" /><path
         fill="#000000"
         opacity="1"
         stroke="none"
         d="m 145,12.520824 c -9.32399,0.493778 -18.52052,0.21644 -27.5527,4.03065 -5.49513,2.320537 -11.4199,-0.06452 -15.97877,-3.878471 -2.95556,-2.472616 -4.286409,-1.452242 -6.463037,0.847567 -1.257797,1.32898 -3.76181,2.31982 -5.561905,2.127062 -4.361038,-0.46699 -8.612098,-2.111449 -12.461235,1.674676 -0.644256,0.63371 -2.447296,0.08935 -3.996849,0.08935 1.266441,-3.727142 2.270531,-6.682188 3.779167,-11.122094 -2.755935,1.273555 -4.249733,1.963861 -5.806739,2.683376 0,-1.57566 0,-3.526313 0,-5.450757 C 66.149002,3.096504 66.149002,3.096504 65.828583,9.146728 62.156857,7.785758 58.449085,6.46065 58.651688,1.295843 87.666695,1 116.3334,1 145,1 c 0,3.742791 0,7.39222 0,11.520824 z"
         id="path4"
         style="display:none" /><path
         fill="#000000"
         opacity="1"
         stroke="none"
         d="m 75.468651,103 c -0.102173,-2.64879 0.264305,-5.297569 0.723373,-8.61557 1.73008,1.223938 2.750382,1.945732 5.059265,3.57914 1.037644,-3.52578 1.755783,-6.483033 2.792275,-9.324143 0.829063,-2.272545 2.045265,-4.403854 3.089645,-6.597847 1.815224,1.337212 4.253945,2.298973 5.327965,4.08252 3.135109,5.206253 5.725319,10.740631 8.533976,16.51114 C 92.645767,103 84.291534,103 75.468651,103 Z"
         id="path5"
         style="display:none" /><path
         fill="#f9b314"
         opacity="1"
         stroke="none"
         d="M 0.50168223,40.965993 C 3.4896562,40.183916 6.5414502,39.320051 9.4513212,39.66242 c 4.9199608,0.578876 6.2418548,7.653957 3.3076378,11.153907 -4.7676508,5.686883 -5.8485538,5.923432 -12.00888977,1.351677 -0.248387,-3.355552 -0.248387,-7.048461 -0.248387,-11.202011 z"
         id="path6"
         style="display:inline" /><path
         fill="#f9b314"
         opacity="1"
         stroke="none"
         d="m 43.458069,103 c -2.698938,-2.00873 -0.719708,-6.99041 3.315315,-7.702705 1.901707,-0.335694 4.459335,1.112243 6.178864,2.448173 0.934578,0.726082 2.608925,3.646722 1.047748,4.846492 -2.677614,2.05776 -7.48615,2.68235 -10.541927,0.40804 z"
         id="path7"
         style="display:inline"
         sodipodi:nodetypes="sssss" /><path
         fill="#000000"
         opacity="1"
         stroke="none"
         d="M 54.533882,1 C 55,2.134366 55,3.268733 55,3.647911 52.404446,3.784671 49.597588,3.093275 47.98848,4.178249 43.558884,7.165 41.411266,4.858383 39.645767,1.244743 44.689255,1 49.378513,1 54.533882,1 Z"
         id="path8"
         style="display:none" /><path
         fill="#000000"
         opacity="1"
         stroke="none"
         d="m 31.884254,66.890022 c -0.376442,0.407753 -0.942819,0.625008 -1.509197,0.842263 0.163674,-0.340401 0.327349,-0.680802 0.711601,-1.213814 0.349606,-0.06805 0.478634,0.05651 0.797596,0.371551 z"
         id="path9"
         style="display:none" /><path
         fill="#f9b314"
         opacity="1"
         stroke="none"
         d="m 58.042854,84.846344 c -0.67918,2.513512 -1.003486,5.24733 -2.184871,7.539375 -0.503811,0.977471 -2.898758,1.557297 -4.2388,1.299889 -0.746918,-0.143463 -1.575081,-2.408524 -1.494454,-3.661369 0.09732,-1.51236 0.758415,-3.779488 1.825211,-4.251526 1.569217,-0.694313 3.713394,-0.08917 5.89722,-0.449211 0.284581,-0.411622 0.203625,-0.435685 0.195694,-0.477158 z"
         id="path10"
         style="display:inline" /><path
         fill="#f9b314"
         opacity="1"
         stroke="none"
         d="m 23.971855,42.97213 c -6.344042,1.708671 -3.253323,-3.12975 -4.201586,-5.10136 -0.197565,-0.410773 0.259837,-1.30364 0.699896,-1.175622 0,0 3.440748,1.000946 5.161122,1.50142 1.429635,0.415895 -0.987993,2.790328 -1.63715,4.533657 -0.132742,0.356483 -0.05613,0.284877 -0.02228,0.241905 z"
         id="path11"
         style="display:inline"
         sodipodi:nodetypes="sssssss" /><path
         fill="#f9b314"
         opacity="1"
         stroke="none"
         d="m 19.04287,77.918335 c -1.437874,0.109319 -2.641934,-1.563171 -2.68373,-2.401619 -0.0611,-1.225647 0.629208,-2.73571 1.491917,-3.669289 0.531014,-0.574638 2.486357,-0.765266 2.905361,-0.307472 0.755888,0.825867 1.319834,2.381775 1.072571,3.420624 -0.264626,1.111801 -1.215766,2.838365 -2.786119,2.957756 z"
         id="path12"
         style="display:inline"
         sodipodi:nodetypes="ssssss" /><path
         fill="#f9b314"
         opacity="1"
         stroke="none"
         d="m 128.36754,39.980202 c -3.40272,-0.09542 -6.4778,-0.410612 -9.32533,-1.387493 -0.52188,-0.179037 -0.39001,-1.615196 0.16175,-1.636425 4.41101,-0.169718 8.82914,0.472269 13.19458,1.122524 0.30245,0.04505 0.51106,0.736446 0.24092,0.878769 -1.18274,0.623127 -2.55383,1.070804 -4.27192,1.022625 z"
         id="path13"
         style="display:inline"
         sodipodi:nodetypes="ssssss" /><path
         fill="#f9b314"
         opacity="1"
         stroke="none"
         d="m 123.47061,30.775222 c -1.26554,-0.139573 -1.39794,-1.072299 -2.11632,-1.960867 -0.41759,-0.516519 -0.60628,-1.894421 0.0545,-1.98608 1.53474,-0.212889 3.07877,-0.200312 4.44172,0.531648 0.3159,0.169652 0.24746,1.58129 0.0811,1.897261 -0.2811,0.533893 -0.21953,1.301182 -0.78714,1.702644 -0.51234,0.362369 -1.11591,-0.123071 -1.67386,-0.184606 z"
         id="path13-7"
         style="display:inline;stroke-width:0.639188"
         sodipodi:nodetypes="sssssss" /><path
         fill="#f9b314"
         opacity="1"
         stroke="none"
         d="m 130.2762,24.731439 c 1.03249,-0.206497 -2.00918,-0.149013 -2.8767,-0.489066 -0.18082,-0.07088 -0.14443,-0.582287 0.0499,-0.576811 l 3.39612,0.09569 c 0.10689,0.003 0.83989,0.554712 0.74847,0.609734 -0.35684,0.214776 -1.84055,0.465006 -1.31781,0.360457 z"
         id="path13-3"
         style="display:inline;stroke-width:0.329749"
         sodipodi:nodetypes="sssssss" /><path
         fill="#f9b314"
         opacity="1"
         stroke="none"
         d="m 131.26753,33.646439 c -1.25108,0.555469 -3.21095,0.516452 -4.41443,0.309024 -0.46751,-0.08058 -0.21466,-0.678823 0.185,-0.932726 1.4629,-0.929388 1.8066,-0.880847 3.52093,-1.157681 0.25315,-0.04088 1.30722,0.03348 1.25138,0.281954 -0.12732,0.566489 0.10934,1.20985 -0.54288,1.499429 z"
         id="path13-1"
         style="display:inline;stroke-width:0.57848"
         sodipodi:nodetypes="ssssss" /><path
         fill="#f9b314"
         opacity="1"
         stroke="none"
         d="m 138.19767,31.7124 c -3.40408,0 -0.85588,1.123187 -3.70341,0.146306 -0.52188,-0.179037 -0.32426,-1.386758 0.2275,-1.407987 4.41101,-0.169718 1.33325,-1.322602 5.69869,-0.672347 0.30245,0.04505 0.31384,0.703812 0.0437,0.846135 -1.18274,0.623127 -0.54767,1.087893 -2.26644,1.087893 z"
         id="path13-8"
         style="display:inline"
         sodipodi:nodetypes="sssssss" /></g></g></svg>
