<?xml version="1.0" encoding="UTF-8" standalone="no"?>
<!-- Created with Inkscape (http://www.inkscape.org/) -->

<svg
   version="1.1"
   id="svg1"
   width="223.30688"
   height="122.69336"
   viewBox="0 0 223.30688 122.69336"
   sodipodi:docname="baralho das arcas - 3det-04_ok2.svg"
   inkscape:version="1.3.2 (091e20e, 2023-11-25, custom)"
   xmlns:inkscape="http://www.inkscape.org/namespaces/inkscape"
   xmlns:sodipodi="http://sodipodi.sourceforge.net/DTD/sodipodi-0.dtd"
   xmlns="http://www.w3.org/2000/svg"
   xmlns:svg="http://www.w3.org/2000/svg">
  <defs
     id="defs1" />
  <sodipodi:namedview
     id="namedview1"
     pagecolor="#ffffff"
     bordercolor="#000000"
     borderopacity="0.25"
     inkscape:showpageshadow="2"
     inkscape:pageopacity="0.0"
     inkscape:pagecheckerboard="0"
     inkscape:deskcolor="#d1d1d1"
     inkscape:zoom="1.5457969"
     inkscape:cx="141.99796"
     inkscape:cy="305.66758"
     inkscape:window-width="1366"
     inkscape:window-height="705"
     inkscape:window-x="1592"
     inkscape:window-y="-8"
     inkscape:window-maximized="1"
     inkscape:current-layer="layer1" />
  <g
     inkscape:groupmode="layer"
     id="layer1"
     inkscape:label="Image 1"
     style="display:inline;opacity:1"
     transform="translate(-8.5429689,-193.16406)">
    <path
       id="rect1"
       style="display:inline;fill:#eba722;fill-opacity:1;stroke-width:2.5;paint-order:stroke fill markers"
       d="m 92.748047,193.16406 -82.464844,3.19336 -1.3046874,24.2461 6.2890624,5.9121 -0.02539,25.66016 -5.154297,4.66602 v 41.24414 l 17.324218,17.77148 196.785161,-0.0215 6.20898,-6.36914 -0.006,-14.27735 -6.65625,-6.45898 0.11133,-32.82617 6.54297,-6.30078 0.22656,-53.75 -132.902344,1.05468 z m -84.1250001,33.84766 -0.080078,4.73047 3.3554691,2.50781 0.08008,-4.28516 z m 0.019531,8.18555 -0.080078,4.73046 3.3554691,2.50586 0.08008,-4.28515 z m 0.00977,8.60937 -0.080078,4.73047 3.3554681,2.50586 0.08008,-4.28516 z m 219.8320321,12.02148 -0.0801,4.73047 3.35547,2.50782 0.082,-4.28516 z m 0,8.63868 -0.0801,4.73047 3.35547,2.50585 0.082,-4.28515 z m 0.01,8.16992 -0.0801,4.73047 3.35547,2.50586 0.0801,-4.28516 z m -0.0215,8.63281 -0.0801,4.73047 3.35547,2.50586 0.082,-4.28516 z" />
  </g>
</svg>
