<?xml version="1.0" encoding="UTF-8" standalone="no"?>
<!-- Created with Inkscape (http://www.inkscape.org/) -->

<svg
   version="1.1"
   id="svg1"
   width="225.63115"
   height="126.12758"
   viewBox="0 0 225.63114 126.12758"
   xml:space="preserve"
   xmlns="http://www.w3.org/2000/svg"
   xmlns:svg="http://www.w3.org/2000/svg"><defs
     id="defs1" /><g
     id="layer1"
     style="display:inline;opacity:1"
     transform="translate(1.7493945,-194.76509)"><path
       id="rect1-5"
       style="display:inline;opacity:1;fill:#000000;stroke-width:2.5;paint-order:stroke fill markers"
       d="m 1.4770871,203.87765 84.7126359,-4.22405 5.584494,1.60465 132.107543,-1.0553 -0.0831,54.44016 -6.71469,5.7996 -0.004,16.69715 6.7239,6.30231 -0.0368,31.25077 -6.18111,6.19973 -198.230072,-0.49941 -15.8564609,-17.53559 5.95e-4,-41.24433 5.154513,-4.66645 -3.289403,-11.8499 -4.72873495,-5.36783 z" /><path
       id="rect1"
       style="display:inline;fill:#eba722;fill-opacity:1;stroke-width:2.5;paint-order:stroke fill markers"
       d="m 82.455684,194.76509 -82.46484385,3.19336 -1.30468745,24.2461 6.2890624,5.9121 -0.02539,25.66016 -5.15429695,4.66602 v 41.24414 l 17.32421785,17.77148 196.785164,-0.0215 6.20898,-6.36914 -0.006,-14.27735 -6.65625,-6.45898 0.11133,-32.82617 6.54297,-6.30078 0.22656,-53.75 -132.902347,1.05468 z m -84.125,33.84766 -0.080078,4.73047 3.3554691,2.50781 0.08008,-4.28516 z m 0.019531,8.18555 -0.080078,4.73046 3.3554691,2.50586 0.08008,-4.28515 z m 0.00977,8.60937 -0.080078,4.73047 3.3554681,2.50586 0.08008,-4.28516 z m 219.832035,12.02148 -0.0801,4.73047 3.35547,2.50782 0.082,-4.28516 z m 0,8.63868 -0.0801,4.73047 3.35547,2.50585 0.082,-4.28515 z m 0.01,8.16992 -0.0801,4.73047 3.35547,2.50586 0.0801,-4.28516 z m -0.0215,8.63281 -0.0801,4.73047 3.35547,2.50586 0.082,-4.28516 z" /></g></svg>
